<?xml version="1.0" standalone="no"?>
<!DOCTYPE svg PUBLIC "-//W3C//DTD SVG 1.1//EN" "http://www.w3.org/Graphics/SVG/1.1/DTD/svg11.dtd">
<svg xmlns="http://www.w3.org/2000/svg">
<metadata>Copyright (C) 2016 by original authors @ fontello.com</metadata>
<defs>
<font id="fontello" horiz-adv-x="1000" >
<font-face font-family="fontello" font-weight="400" font-stretch="normal" units-per-em="1000" ascent="850" descent="-150" />
<missing-glyph horiz-adv-x="1000" />
<glyph glyph-name="star" unicode="&#xe800;" d="M415 261l67-34c-7-15-12-31-16-48l-51 26-195-101c-8-6-16-8-24-8-9 0-18 4-24 12-6 9-8 21-3 35l47 201-168 169c-20 16-18 32-15 39 2 6 9 21 35 22l214 27 101 202c9 24 26 27 33 27 6 0 23-3 32-27l101-202 214-27c25 0 33-16 35-22 2-7 5-23-15-39l-145-146c-26-8-50-21-72-36l-6 28 167 169-211 27-101 200-101-200-210-27 167-169-46-196 190 98z m556-155c0-14-1-27-4-39-16-100-95-179-194-195-13-2-26-4-40-4-89 0-168 50-208 124-19 33-29 72-29 114 0 18 2 36 6 54 4 17 10 32 17 48 14 29 34 55 58 76 14 12 28 23 44 31 34 18 72 28 112 28 42 0 80-11 114-29 74-40 124-119 124-208z m-50 0c0 103-84 187-188 187-36 0-70-11-99-29-17-10-31-22-43-37-11-13-20-27-27-42-7-15-12-32-15-49-2-10-3-20-3-30 0-103 84-187 188-187 9 0 19 1 29 2 80 13 143 76 155 156 2 9 3 19 3 29z m-117 26c-17 15-37 23-60 23-12 0-21-2-29-5-5-1-11-5-20-11l10 61h113v46h-152l-10-77-9-71-1-5 49-2c4 8 11 14 19 17 5 1 11 2 18 2 14 0 24-4 31-14 6-10 10-22 10-36 0-15-4-27-11-36-7-10-17-14-31-14-12 0-21 3-27 9-6 6-10 15-12 27h-55c2-26 12-46 28-60 17-14 39-21 66-21 32 0 57 10 74 30 16 20 24 43 24 69 1 30-8 52-25 68z" horiz-adv-x="1000" />

<glyph glyph-name="airport" unicode="&#xe801;" d="M244 591c-479-1 0-611 0-611s489 611 0 611z m124-305h-226v22h226v-22z m33 104l-314-73c3 10 10 21 20 31 11 10 20 16 29 18l92 22 59 86 35 8-31-80 72 17c4 1 7 3 9 6 3 2 5 7 7 12l6 31 21 5-5-83z m371 53c0 0-219 279 0 279 224 1 0-279 0-279z m-124-49l-36 72c38 19 77 32 78 33l26-76c0 0-35-12-68-29z m107-33c31-1 58-4 81-8l-11-79c-22 4-47 6-75 8-27 1-51 4-71 6l9 79c19-2 42-4 67-6z m-256-222l14-79c-51-9-102-19-145-27l-15 78c43 9 94 18 146 28z m472 125c0-29-18-56-56-82l-46 66c7 4 12 9 15 11-5 3-14 6-26 9l18 78c63-15 95-43 95-82z m-129-33l37-70c-39-22-91-42-144-58l-23 76c48 14 95 33 130 52z m-316 143c0 38 37 63 50 71l42-65c8-2 20-5 36-8l-14-79c-31 6-114 20-114 81z m152-204l19-77c-18-5-36-8-52-11-30-4-63-10-96-16l-13 79c33 6 66 11 97 16 14 2 29 5 45 9z" horiz-adv-x="1000" />

<glyph glyph-name="airplane" unicode="&#xe802;" d="M335 142c-3-1-8-3-18-7 0 0-31-12-39-4l0 0c-8 8 5 38 5 38 3 10 5 15 7 18-2-2-7-5-13-2l-51 28c-1 0-1 0-2 1l45 35 47-6c3 0 8-1 8-1s8 8 9 10l123 130-210 125c-6 4-6 10-1 14l43 33c6 5 15 6 21 3l233-90 129 123c24 22 57 37 74 34 6-2 12-5 17-10l0 0c5-5 8-11 10-18 4-16-11-49-34-73l-123-130 91-232c2-7 1-16-3-21l-34-44c-4-5-10-4-14 1l-124 211-131-123c-2-2-10-9-10-9s1-5 1-9l6-46-35-45c0 0-1 1-1 2l-27 50c-4 8-2 12 1 14z m97 592c94 23 192 9 276-39 106-61 173-167 186-286l64 7c-15 140-94 263-218 334-104 60-217 74-332 41l-9 36-108-124 165 6-24 25z m483-388l-78-146 34 8c-27-92-88-171-172-219-106-61-231-67-341-18l-25-59c128-57 275-50 398 21 104 60 173 152 202 267l35-10-53 156z m-719-255c-67 69-104 162-104 259 0 122 58 233 155 303l-38 52c-114-82-181-213-181-355 0-120 44-226 130-308l-26-26 161-32-87 140-10-33z" horiz-adv-x="1000" />

<glyph glyph-name="speedboat" unicode="&#xe803;" d="M457 710l-165-5 108 123 9-35c115 33 228 19 332-41 124-71 203-194 218-334l-64-8c-13 120-81 225-186 286-84 49-182 63-276 40l24-26z m459-362l-77-146 33 7c-27-92-88-170-172-219-105-61-230-66-340-17l-26-60c129-57 275-50 398 22 104 60 173 151 202 267l35-10-53 156z m-719-255c-66 69-104 161-104 258 0 122 58 233 155 304l-38 52c-114-83-181-213-181-356 0-120 45-225 130-308l-26-26 162-32-88 140-10-32z m243 222c1-10 9-17 19-17 0 0 1 0 1 0l308 16-54-47c-13 4-28 7-49 7-37 0-56-9-73-18-15-7-27-13-54-13s-38 6-54 13c-17 9-36 18-73 18-36 0-56-9-73-18-15-7-27-13-53-13-27 0-39 6-54 13-3 2-6 3-9 5l-84 74c-7 6-10 16-7 24 3 9 11 15 20 15l263 23-56 82c-4 7-5 15-2 22s11 12 18 13l225 20c7 0 13-2 18-7l100-105 125 11c10 0 19-5 23-14 3-9 1-19-6-26l-46-39-355-19c-10-1-18-10-18-20z m25 86l194 16-67 71-176-15 49-72z m199-157c-36 0-56-10-73-18-15-7-27-13-53-13-27 0-39 6-54 13-17 8-36 18-73 18s-56-10-73-18c-15-7-27-13-53-13s-39 6-54 13c-17 8-37 18-73 18v-45c26 0 38-6 54-13 17-8 36-18 73-18s56 10 73 18c15 7 27 13 53 13s39-6 54-13c17-8 36-18 73-18 37 0 56 10 73 18 15 7 27 13 53 13s39-6 54-13c17-8 36-18 74-18v45c-28 0-39 6-54 13-17 8-37 18-74 18z" horiz-adv-x="1000" />

<glyph glyph-name="size" unicode="&#xe804;" d="M133 641l-104 61 104 60 105 61v-73h384v73l105-61 105-60-105-61-105-61v74h-384v-74l-105 61z m539-195v-491c0-42-34-77-76-77h-491c-42 0-77 35-77 77v491c0 42 35 76 77 76h491c42 0 76-34 76-76z m-68-30c0 21-17 38-38 38h-432c-21 0-38-17-38-38v-432c0-21 17-38 38-38h432c21 0 38 17 38 38v432z m292-328v384h73l-61 105-60 104-61-104-61-105h74v-384h-74l61-105 60-104 61 104 61 105h-73z" horiz-adv-x="1000" />

<glyph glyph-name="resort" unicode="&#xe805;" d="M428 139c0 0-1 0-2 0-19 157-82 246-121 287 54-3 87-55 101-86 1-2 3-3 5-2 2 1 4 2 4 5-10 147-117 140-117 140 48 46 124 5 159-18 1-3 2-5 5-5 3-1 6 0 7 3 22 46 71 124 154 122-50-65-144-212-195-446m310 585c0 0-5 169-191 93-2-1-3-3-3-5 1-3 3-4 5-4 37 5 87-1 111-58 0 0-115 73-268-103-1-2-1-4 0-6 2-2 4-2 6-1 49 33 155 90 224 25 0 0-148 9-164-193-107 122-187 71-187 71 17 40 52 45 78 41 2 0 3 1 4 2s-1 3-2 4c-130 54-121-68-121-68-139 35-135-129-129-194 0-2 1-3 3-3 1 0 3 1 3 3 17 95 97 136 97 136-74-104-50-216-29-274 0-2 3-3 5-2 2 0 3 2 3 4-12 116 67 208 84 227 57-77 76-204 83-293-119-29-203-101-203-149 0-63 140-114 313-114 174 0 314 51 314 114 0 46-78 114-189 146-6 136 8 314 101 426 40-51 112-162 97-296 0-3 2-6 5-6 3-1 6 1 8 4 29 80 62 239-42 387 0 0 108-55 136-183 0-2 2-4 4-3 2 0 4 2 4 4 3 96-8 306-160 268" horiz-adv-x="1000" />

<glyph glyph-name="dine" unicode="&#xe806;" d="M538 126c120 0 218 99 218 221s-98 220-218 220-218-99-218-220 98-221 218-221m0 458c129 0 235-107 235-237s-106-237-235-237-234 106-234 237 105 237 234 237m0-517c153 0 277 125 277 280 0 154-124 279-277 279s-277-125-277-279c0-155 124-280 277-280m431-26l-16 628c0 13-11 24-24 24-4 0-7-1-10-2v0c0 0-1 0-2-1-2-1-4-3-6-5-18-14-74-74-79-155-7-124 52-174 73-220l-17-269c0-13 27-24 40-24 14 0 41 11 41 24m-898 382l42-21c5-2 10-4 16-5l-17-367c0-12 27-21 41-21 13 0 40 9 40 21l-16 369c6 2 11 4 16 7l31 19c22 14 39 44 39 70v165c0 13-11 24-24 24-13 0-24-11-24-24v-148h-14v148c0 13-10 24-24 24-13 0-24-11-24-24v-148h-13v148c0 13-11 24-25 24-13 0-24-11-24-24v-148h-13v142c0 14-11 25-24 25-14 0-25-11-25-25v-161c0-28 18-57 42-70m430-1c0-12 4-22 11-29 7-7 16-10 27-10 12 0 21 3 28 10 7 7 11 17 11 29 0 12-4 21-11 28-7 7-16 11-27 11-12 0-21-4-28-11-7-7-11-16-11-28m-6-139c0-17 5-30 13-40 9-9 20-14 33-14 13 0 23 5 31 14 9 9 13 22 13 40 0 15-4 27-13 36-8 9-19 14-32 14-15 0-26-5-34-16s-11-21-11-34m-7 77c-16 6-27 16-34 28-7 11-11 24-11 39 0 24 8 44 25 59 17 16 40 24 71 24 31 0 54-8 71-24 17-15 25-35 25-59 0-15-3-29-11-40-8-12-19-21-33-27 18-7 31-18 41-32 9-14 14-30 14-48 0-29-10-54-29-72-18-19-44-28-75-28-29 0-53 7-73 23-23 18-34 43-34 75 0 17 4 33 13 48 8 14 22 26 40 34" horiz-adv-x="1000" />

<glyph glyph-name="pool" unicode="&#xe807;" d="M321 447h226v-86h-226v86z m-34-269c19 0 34 16 34 34v81h226v-76c0-19 15-34 34-34 19 0 34 15 34 34v369c0 63 53 78 59 79l-1 0c15 4 26 17 26 33 0 19-15 34-34 34-2 0-4 0-6-1h0c-1 0-1 0-1 0-39-9-111-50-111-145v-71h-226v66c0 60 48 76 58 79 16 3 28 17 28 34 0 18-16 34-34 34-3 0-5-1-8-1l0 0c-38-8-111-50-111-146v-369c-1-18 15-34 33-34m-218-90c44 28 101 58 117 58 8 0 28-15 41-25 24-18 48-37 76-37 25 0 51 17 77 35 19 12 43 28 56 28 13 0 36-16 55-30 25-17 49-33 72-33 24 0 46 16 69 33 20 14 41 31 57 31 15 0 37-16 56-30 24-17 46-34 71-34 39 0 115 51 138 67 12 8 15 24 7 35-8 12-25 15-36 7-40-28-94-57-109-57-8 0-27 14-40 23-26 19-55 40-87 40-32 0-61-21-87-40-12-9-31-23-38-24-8 0-30 16-43 25-28 19-56 38-85 38-29 0-57-18-84-36-17-11-39-26-49-26-10 0-30 15-45 26-23 18-46 35-72 35-38 0-121-50-145-65-12-8-16-24-8-36 8-12 24-15 36-8m895-16c-8 12-24 14-35 6-40-27-94-57-109-57-8 0-28 14-41 24-25 18-54 39-86 39-32 0-61-21-87-40-12-9-32-23-38-23-8 0-30 15-43 24-28 19-56 39-85 39-29 0-57-19-84-37-17-11-39-26-49-26-10 0-30 15-45 27-23 17-46 35-72 35-38 0-121-50-145-66-12-7-16-23-8-35 8-12 24-16 36-8 44 27 101 57 117 57 8 0 28-15 41-24 24-19 48-37 76-37 25 0 51 16 77 34 19 13 43 28 56 28 13 0 37-16 55-29 25-17 49-34 73-34 23 0 45 16 68 34 20 14 42 30 57 30 15 0 37-16 56-30 24-17 46-33 71-33 39 0 115 50 138 66 12 8 14 24 6 36" horiz-adv-x="1000" />

<glyph glyph-name="spa" unicode="&#xe808;" d="M894 186c0 65-53 118-118 118s-117-53-117-118 52-117 117-117 118 52 118 117m-825-187h539l52-52c5-5 11-9 17-12 6-2 13-4 19-4h221c28 0 51 24 51 52 0 29-24 51-52 51h-198l-135 136c-10 11-16 15-35 15-32 0-479 0-479 0-23 0-41-18-41-40v-105c0-23 18-41 41-41m145 458c-26-59-84-209-100-247h197c5 11 10 21 15 31 19 35 77 52 63 100 0 1 0 1-1 2l52-50c4-3 9-6 14-8l142-55c5-1 10-2 15-2 16 0 32 10 38 26 8 21-2 45-24 53l-125 48c-6 2-11 6-16 10 0 0-111 105-111 105-4 4-11 7-17 9-1 1-3 1-5 2-1 0-3 1-5 1-27 8-58 14-87 11-9 0-19-3-27-8-9-7-13-18-18-28m62 156c0-62 51-113 113-113s114 51 114 113c0 63-51 114-114 114-13 0-26-3-38-7-32-11-57-37-69-69-4-12-6-24-6-38m17 156c-33 0-60-26-60-59 0-21 11-39 26-49 7 19 18 36 33 50 14 15 31 26 50 32-11 16-29 26-49 26m347-838h-612v57c11-9 25-14 41-14h529l42-43z" horiz-adv-x="1000" />

<glyph glyph-name="welcomedrink" unicode="&#xe809;" d="M28 720c0-13 11-23 24-23h104c7 0 19-5 24-10l61-59h-69c-39 0-48-21-19-48l299-277c7-7 16-11 24-15v-316l-139-61c-11-5-11-9 2-9h329c14 0 14 4 2 9l-146 61v315c11 4 21 10 30 19l257 271c28 28 18 51-22 51h-480l-96 93c-14 13-38 23-57 23h-104c-13 0-24-10-24-24m940-133c3 53-15 104-50 144-35 39-84 63-137 66-93 6-176-53-202-143l45-13c20 69 83 113 155 109 40-3 77-20 104-51 26-30 40-69 37-109-2-41-20-78-51-104-30-27-69-40-109-38-15 1-30 4-44 9l-17-44c19-7 38-11 58-12 4-1 8-1 13-1 48 0 94 18 131 50 40 35 63 84 67 137" horiz-adv-x="1000" />

<glyph glyph-name="disco" unicode="&#xe80a;" d="M715 210c0 6 1 12 1 19h37c-9-7-22-13-38-19m-14-80c2 8 4 15 6 23 11 4 22 8 33 12-11-13-24-24-39-35m-40-99c5 8 9 17 14 26 9 4 17 9 26 13-12-14-26-27-40-39m-25 64c-14-6-29-11-44-15 3 16 6 33 8 51 18 2 35 5 51 8-4-15-9-30-15-44m-69-103c4 10 8 21 11 33 8 1 16 3 23 5-10-14-22-28-34-38m-64 288v54c18 0 35-1 51-2 1-17 2-34 3-52h-54z m51-103c-16-1-33-2-52-2v54h55c-1-18-2-35-3-52m-17-108c-11-1-23-2-35-3v57c16 1 31 1 46 2-3-20-6-39-11-56m-35-91v37c7 1 13 1 19 2-6-17-12-29-19-39m1 464c11 0 23-1 35-3 4-17 7-35 10-56-15 1-30 2-45 2v57z m0 84c0 1 1 1 1 2 6-9 12-21 18-36-7 1-13 1-19 1v33z m98-48c-7 2-15 4-23 6-4 12-7 23-12 33 13-11 25-24 35-39m50-109c-16 4-33 7-51 9-2 17-5 34-8 50 16-4 30-9 44-14 6-14 11-29 15-45m-43-140h57c-1-12-2-24-3-35-17-4-36-8-56-11 1 15 1 30 2 46m-157 264c-6 0-12 0-19-1 6 15 12 27 18 36 0-1 1-1 1-2v-33z m0-108c-15 0-30-1-45-2 3 21 6 39 10 56 12 2 24 3 35 3v-57z m0-105h-54c1 18 2 35 3 51 16 2 33 3 51 3v-54z m0-105c-18 0-35 1-51 2-1 16-2 34-3 52h55v-54z m-75 309c-8-2-16-4-23-6 10 15 22 28 34 39-4-10-8-21-11-33m-30-204l-57 0c1 12 2 24 3 35 17 4 36 8 56 11-1-15-2-31-2-46m-132-115c10-4 22-8 33-12 2-8 4-15 6-23-15 11-28 22-39 35m-14 64h38c0-7 1-13 1-19-16 6-29 12-39 19m39 70c0-6-1-13-1-19h-37c9 6 22 13 38 19m14 80c-2-8-4-16-6-24-11-3-22-7-33-11 11 12 24 24 39 35m578-72l-37 18-53-38c4-2 9-5 12-7h-22l-14-10c-6-4-13-6-20-6-7 0-15 3-22 8-2 2-5 5-6 8l-61 0c0 15-1 31-2 46 17-3 43-8 61-12l40 84-55 77c-8 12-8 29 2 41 7 8 16 12 26 12 5 0 10-1 15-3l32-15c-57 56-132 93-216 101v167c0 19-15 34-34 34-19 0-34-15-34-34v-167c-59-6-113-26-160-56l91-108c11-14 11-33-2-46-4-4-10-7-16-8-1-5-2-10-2-15-18-2-35-5-51-8 3 13 8 25 13 37l-50 38c-4-2-8-4-12-6 2 3 5 6 8 9l-54 42c-55-63-89-146-89-236 0-116 56-219 143-285l8 57-61 39c-13 8-19 25-13 40 5 14 17 23 32 23 1 0 3 0 4 0l71-10 5 7c-2 5-3 9-5 14 4 0 9-1 13-2l26 41c1 2 3 4 4 5-19 3-37 7-54 11-1 11-2 23-3 35h57c0-15 1-29 2-43 6 5 14 8 22 8 4 0 8-1 12-2 15-6 24-21 22-37l-10-71 22-14c-4 16-7 35-10 55 15-1 30-1 45-2v-57c-11 1-23 2-34 3l38-23c13-9 19-26 13-41-3-8-9-15-17-18v-9c-1 2-2 4-3 7-4-2-8-2-12-2-1 0-3 0-4 0l-71 10-39-61c0 0 0 0 0 0 47-23 100-36 155-36 198 0 358 161 358 358 0 18-2 36-4 53m77-342l60-74-75 60-74-60 60 74-60 75 74-60 75 60-60-75z m-80 443l48 103-93-65-103 48 66-93-49-103 94 66 103-49-66 93z m-609 171l122 159-154-129-159 123 129-154-122-159 154 129 159-123-129 154z m151-419l-50-79-93 13 79-51-13-92 50 79 93-13-79 50 13 93z" horiz-adv-x="1000" />

<glyph glyph-name="culturalshow" unicode="&#xe80b;" d="M828 600c-1-16-17-30-37-30-21 0-38 15-38 32s17 32 38 32c4 0 8-1 12-2 9 32 7 56 5 70h-79c-1-42-15-98-16-100h0c-2-16-18-28-37-28-21 0-37 14-37 31 0 18 16 32 37 32 4 0 8-1 11-1 4 20 9 49 9 70 0 8 3 15 8 20 5 5 11 8 18 8h88c14 0 27-10 30-24 3-19 7-58-12-110z m-633-164c-8 10-25 14-37 8l-79-38c-7-3-11-8-14-15-2-7-2-14 2-21 9-20 17-48 23-68-4-1-7-2-11-3-18-9-27-29-20-45 8-16 29-22 48-13 17 9 26 26 21 42l0 0c0 2-12 59-29 96l71 34c8-11 20-32 26-64-4 0-8-2-12-4-18-8-27-29-20-44 8-16 29-22 48-13 18 9 27 28 20 44-5 54-25 88-37 104z m251 320c-43 0-79-35-79-79 0-44 36-80 79-80 44 0 80 36 80 80 0 44-36 79-80 79z m-78-554l51 88h70l140-232c3-5 8-9 13-11h-234c0 1 1 1 1 1 13 6 19 21 13 35l-54 119z m-285-261h832c30 0 54 24 54 53s-24 53-54 53h-254c1 1 3 1 4 2 13 8 17 24 9 37l-148 245v121c67-61 100-158 101-160 3-11 14-18 25-18 2 0 5 0 8 1 14 5 21 19 17 33-3 7-48 145-151 210-1 36-30 65-66 65h-27c-17 0-33-6-45-17-81 58-120 174-121 176-4 14-19 21-33 17-14-4-21-19-17-33 2-7 48-144 150-210v-210l-51-90c-4-7-5-16-1-24l59-131c3-6 8-11 15-13h-306c-30 0-54-24-54-53 0-30 24-54 54-54" horiz-adv-x="1000" />

<glyph glyph-name="shopping" unicode="&#xe80c;" d="M675 350v98h167l-14-97h-153z m-390 98h146v-97h-130l-16 97z m146 147v-98h-147c-2 0-4-1-7-2l-16 100h170z m195-245h-146v98h146v-98z m0 147h-146v98h146v-98z m237 98l-14-98h-174v98h188z m93 80c-9 11-23 17-37 17h-675l-9 57c-4 24-24 41-48 41h-110c-27 0-49-22-49-49s22-49 49-49h68l91-545c1-2 2-4 2-6 1-3 2-5 3-7 1-4 4-6 6-9 1-2 3-4 4-6 3-2 7-4 10-6 2-1 3-2 5-3 6-2 12-4 18-4h538c27 0 49 22 49 49 0 27-22 49-49 49h-496l-8 49h552c25 0 45 18 49 42l48 342c3 14-2 28-11 38m-525-691c0-40-33-73-73-73-41 0-74 33-74 73 0 40 33 73 74 73 40 0 73-32 73-73m439 0c0-40-32-73-73-73-40 0-73 33-73 73 0 40 33 73 73 73 41 0 73-32 73-73" horiz-adv-x="1000" />

<glyph glyph-name="conventioncenter" unicode="&#xe80d;" d="M200-5l0 1c5 11 14 19 27 24l41 19 2 2c-2 2-3 3-5 5-18 24-28 56-29 92l-6 3-21 17-33-33h-4l-34 34-21-18-44-20c-6-3-12-7-16-14 0 0-47-113-21-113h164c0 1 0 1 0 1m-105 266c1-70 40-111 79-111 33 0 78 41 79 111 0 48-23 77-79 77s-80-29-79-77m350-241c13-5 22-14 27-25 0 0 0 0 0-1h52c0 1 0 1 0 1l1 1c5 11 14 19 26 24l41 19 2 2c-1 2-3 3-4 5-19 24-29 56-30 92l-5 3-21 17-34-33h-4l-34 34-21-18-5-2c-1-36-13-68-32-93-1-1-2-2-4-4l4-3 41-19z m53 130c33 0 78 41 79 111 0 48-23 77-79 77-56 0-79-29-79-77 1-70 40-111 79-111m441-43c-3 7-10 11-16 14l-44 20-21 18-34-34h-4l-34 34-21-18-5-3c-1-35-13-68-32-92-1-1-2-3-4-4l4-3 40-18c14-6 23-15 27-25 0 0 1-1 1-2h164c26 0-21 113-21 113m-196 154c1-70 40-111 79-111 34 0 78 41 79 111 0 48-23 77-79 77-56 0-79-29-79-77m-307-260l-43 20-21 18-34-34h-4l-34 34-21-18-44-20c-6-3-12-7-16-14 0 0-47-113-21-113h276c26 0-22 113-22 113-3 7-9 11-16 14m-100 218c-56 0-79-29-79-78 1-70 40-111 79-111 33 0 78 41 79 111 0 49-23 78-79 78m424-218l-43 20-21 18-34-34h-4l-34 34-21-18-43-20c-7-3-13-7-16-14 0 0-48-113-22-113h276c26 0-22 113-22 113-2 7-9 11-16 14m-100 29c33 0 78 41 79 111 0 49-23 78-79 78-56 0-79-29-79-78 1-70 40-111 79-111m-189 495c1 0 2-1 3-1 2 0 4 1 5 2l83 64c2 1 4 4 4 6 0 2-2 5-4 6l-83 64c-2 2-6 2-8 1-3-2-5-4-5-7v-128c0-3 2-6 5-7m27 202c72 0 131-59 131-131s-59-131-131-131-131 59-131 131 59 131 131 131m-426-361h852c7 0 12 5 12 11v437c0 7-5 12-12 12h-852c-6 0-11-5-11-12v-437c-1-6 5-11 11-11" horiz-adv-x="1000" />

<glyph glyph-name="conferenceroom" unicode="&#xe80e;" d="M888 616c-13 15-31 24-50 24h-109c-2 25-11 65-46 116 5 7 8 16 8 26 0 28-23 51-52 51-28 0-51-23-51-51 0-28 23-51 51-51 2 0 3 0 4 0 28-41 37-73 39-91h-366c2 18 11 50 39 91 0 0 1 0 2 0 28 0 51 23 51 51 0 28-23 51-51 51-28 0-51-23-51-51 0-10 3-19 8-27-34-50-44-90-46-115h-108c-20 0-38-9-50-24-12-15-17-34-13-53l37-176c6-30 33-51 63-51h62v109c0 52 42 94 94 94h291c52 0 95-42 95-94v-109h62c30 0 56 21 63 51l37 176c4 18-1 38-13 53m-196-171v-528c0-26-22-47-48-47h-291c-26 0-47 21-47 47v528c0 26 21 47 47 47h291c26 0 48-21 48-47" horiz-adv-x="1000" />

<glyph glyph-name="wedding" unicode="&#xe80f;" d="M884 490l-10-16c0 0-16-20-15 9 1 21 32 41 22 47-10 6-72 42-91 53-18 11-2 60-2 60 8 2 28-26 28-26s-16 26 1 46c24-67 49-76 49-76l22-13c34-20 17-49-4-84z m-290 192l-19-18-3 3 19 18 3-3z m-37 15l2-27 5 1-2 26-5 0z m-28-20l20-17 3 3-20 17-3-3z m-93 52c-18 20-48 12-51-13h0c-2-22 17-37 35-50h0c0 0 9-8 14-12 0 0 1 0 2 0h0c1 0 1 0 2 0 3 3 8 8 11 10 1 0 2 1 3 2 16 13 37 27 34 50h0c-2 25-33 34-50 13m-30-309c-34-3-63 3-87 23-5 37-9 75-13 112-4 32-24 58-58 59-29 0-62-26-58-58 6-60 13-120 22-180l-104-203 130-2v-176c0-50 77-50 77 0v174l24 0 0 195c21-6 43-8 67-6 39 5 40 67 0 62m267-141c-5 0-9 8-9 18 0 9 4 17 9 17 5 0 9-8 9-17 0-10-4-18-9-18m-5-39c-4 0-8 8-8 17 0 10 4 18 8 18 5 0 9-8 9-18 0-9-4-17-9-17m-86 371h-40c-2 4-3 8-3 13 0 9 5 17 13 21l20 0c8-4 14-12 14-21 0-5-2-9-4-13m356-561c-34 11-67 22-101 33-55 22-64 56-67 67 4 9 3 32 3 32-1 56 1 136 47 174 27 23 23 69-1 93-14 14-32 19-49 18-44 34-90 67-137 99v126h-27v-80h-17c1 4 2 8 2 12 0 11-5 20-14 25l-15 16-15-16c-9-5-15-14-15-25 0-4 1-8 3-12h-8v-47h27c-10-18-9-45 14-60 43-29 143-102 149-107l-46-64 3 45c-22-47-31-104-33-155-20 0-41 0-61 0-18 0-40-13-43-32-12-82 11-161 57-229 32-47 108-3 76 44-26 38-47 83-50 129 15 0 29 0 44-1 6-5 14-9 22-12 17-52 49-100 103-117 41-13 83-27 125-40 54-18 77 67 24 84m-813 515c30-3 43 17 47 47 5 42-5 70 3 97 6 0 12-2 18-3-2-6-3-13-3-20 0-35 29-65 65-65s65 29 65 65c0 36-29 65-65 65-17 0-32-6-44-17-46 50-101 21-80-39 26-74 42-124-6-130m-64-126c-11 14-31 8-33-8h1c-2-14 11-23 22-32 0-1 9-8 10-8 0 0 10 7 10 8 12 9 24 17 22 32h0c-2 16-21 21-32 8m825 83c0-35-28-63-63-63-35 0-63 28-63 63 0 35 28 63 63 63 35 0 63-28 63-63" horiz-adv-x="1000" />

<glyph glyph-name="volleyball" unicode="&#xe810;" d="M862 362c-69 99-149 150-204 176l-19 9 14 15c24 28 54 56 87 81l10 8 10-9c50-44 88-102 109-165 12-34 19-69 21-105l2-54-30 44z m0-157c-15-37-35-72-60-103l-16-19-10 23c-31 67-92 163-214 234l-8 5 1 10c2 27 11 69 37 120l7 12 13-5c61-26 175-94 250-266l2-5-2-6z m-144-178c-29-20-61-36-94-47-41-14-83-21-126-21-60 0-118 13-173 40-42 21-80 49-113 84l-45 49 62-24c72-28 142-42 208-42 106 0 181 36 226 66l13 9 8-13c17-27 30-55 40-83l4-12-10-6z m-595 212l-2 6c-13 45-17 92-13 139l3 31 22-20c57-51 170-135 286-135 32 0 64 7 93 20l7 4 7-4c34-21 65-44 92-70l14-14-17-10c-33-21-90-47-171-49-3 0-5 0-8 0-94 0-198 34-308 99l-5 3z m14 263c27 64 70 119 124 161 33 25 71 45 111 59 12 4 25 7 38 11l52 12-37-38c-110-111-145-225-154-300l-4-25-20 14c-45 31-83 66-107 90l-7 7 4 9z m406 215c7 5 14 10 21 15l5 4 7-1c31-7 62-17 91-31l22-10-18-16c-152-127-183-257-188-324l0-10-10-3c-17-7-36-10-55-10-22 0-46 4-70 12l-10 4 0 11c0 47 14 213 205 359m-45 104c-51 0-102-9-151-26-48-16-93-40-134-70-160-123-225-334-160-526 41-119 125-214 238-270 65-32 135-48 207-48 51 0 102 8 152 25 48 16 93 40 133 71 161 122 225 333 160 525-65 191-244 319-445 319" horiz-adv-x="1000" />

<glyph glyph-name="basketball" unicode="&#xe811;" d="M537 744c10 14 9 44 7 70 0 2 0 3 0 4-15 1-30 2-45 2-59 0-115-11-167-30 37-18 94-49 158-94 21 19 38 36 47 48m238-268c-23-3-43-7-60-12 80-139 112-316 119-443 79 80 129 189 134 310-54 67-127 152-193 145m-475 120c56 12 109 40 151 70-88 60-161 92-176 98-91-50-164-128-206-223 55 22 115 33 173 44 19 4 39 7 58 11m325-13c5-5 10-11 15-16 18-19 35-40 50-62 22 8 48 14 80 17 73 9 139-50 195-114-12 97-54 186-116 255-34-4-72-11-111-22-25-8-65-28-113-58m-62-243c19 65 41 112 85 143-13 18-27 36-42 52-7 7-15 14-22 21-173-118-411-335-433-523 73-79 171-134 283-149 40 81 78 245 101 342 11 47 20 87 28 114m-197 103c61 56 124 106 183 146-20 17-39 33-58 48-49-37-112-72-182-87-19-4-39-7-58-11-74-14-145-27-205-60-11-41-18-84-18-129 0-100 32-192 85-269 34 136 152 269 253 362m223 173c56 36 105 61 136 70 28 8 55 14 82 19-61 52-134 90-216 106 2-33 3-69-17-95-9-13-25-30-46-48 20-16 41-33 61-52m19-290c-7-24-17-64-27-110-32-137-62-258-98-336 5 0 10 0 16 0 109 0 210 37 290 100-3 134-35 323-116 463-31-23-48-60-65-117" horiz-adv-x="1000" />

<glyph glyph-name="football" unicode="&#xe812;" d="M544 424l-235 44-7 202 214 77 154-143-126-180z m68-197l-150-169 115-120 202 86 33 178-200 25z m-559 124c0 59 12 116 33 168l111 138 29 46c75 59 170 94 272 94 3 0 5 0 8-1l49-18 110-14c70-28 132-74 179-132l-18-79 72-203 46-12c-7-239-204-432-446-432-120 0-229 48-309 125l87 75-83 212-129 44-3-94c-5 27-8 54-8 83m5-168l3-3c68-175 238-299 437-299 260 0 470 210 470 470 0 260-210 470-470 470-259 0-470-210-470-470 0-58 11-114 30-165l0-3z" horiz-adv-x="1000" />

<glyph glyph-name="billiards" unicode="&#xe813;" d="M499 821c-260 0-470-210-470-470s210-470 470-470c260 0 470 211 470 470s-211 470-470 470m88-593c-108 0-195 88-195 196s87 196 195 196 196-88 196-196-87-196-196-196m101 208c-6 6-12 10-20 14-11 5-15 14-10 24 3 6 5 13 6 19 0 12-1 23-4 32-7 21-20 36-41 45-20 9-44 9-73 0-28-9-47-24-58-44-11-19-13-39-6-60 3-9 8-18 16-28 4-5 10-9 17-13 10-5 12-14 5-25-3-7-6-14-7-22-3-15-2-31 3-47 8-24 23-41 45-53 22-11 48-11 80-1 32 10 54 27 66 50 12 22 14 45 6 69-5 16-14 30-25 40m-133 20c-8 4-14 11-18 22-3 11-3 21 1 29 4 8 12 15 24 18 11 4 21 4 29 0 8-5 14-13 18-24 3-10 3-19-1-28-4-8-12-15-23-18-12-4-21-4-30 1m99-111c-5-10-13-17-26-21-13-4-24-4-34 2-10 5-17 15-21 28-5 15-5 27 0 37 5 10 13 17 26 21 12 4 23 4 33-1 10-5 17-15 22-30 5-14 5-26 0-36" horiz-adv-x="1000" />

<glyph glyph-name="badminton" unicode="&#xe814;" d="M933 568c-1-18-6-36-14-55l-39 26 38 57 15-9c0-7 1-13 0-19m-59-137l-45 30 38 57 42-27c-10-20-22-40-35-60m-61-72l-35 24 37 57 45-29c-14-20-30-37-47-52m-81-46l32 49 29-19c-20-13-41-23-61-30m-84 43l38 58 58-38-38-58-58 38z m-24-37l11 17 46-31c-20 1-40 5-57 14m-14-46c-15-13-30-26-45-39-9-9-19-17-28-25 1 4 2 8 3 11 7 19 13 38 19 57 3 12 7 24 11 36l49-32c-3-3-6-6-9-8m-179-39c-15 13-30 26-45 39-3 2-6 5-9 8l49 32c4-12 8-24 12-36 6-19 12-38 18-57 1-4 3-8 4-12-9 9-19 17-29 26m-115 71l46 31 11-17c-18-9-37-13-57-14m-25 13l-38 58 57 38 38-58-57-38z m-87 26l28 18 33-48c-21 6-41 16-61 30m-68 67l45 29 38-57-35-24c-18 15-33 32-48 52m-48 80l42 27 38-57-45-30c-13 20-25 40-35 60m-25 77c0 6 0 13 1 19l14 9 38-57-38-26c-8 19-13 37-15 55m69 117l11-17-58-38-4 6c12 17 28 33 51 49m85 40l4-6-58-37-11 16c23 15 45 23 65 27m55-84l-57-38-38 58 57 38 38-58z m-3 81c6-2 12-4 18-7 15-8 30-20 44-35l-38-25-38 57 14 10z m120-116l-45-29-38 58 42 27c14-17 28-36 41-56m42-84l-36-23-38 57 45 30c13-21 22-42 29-64m-3-143c-8-18-20-34-35-46l-11 16 46 30z m-40 86l38-58-57-37-38 57 57 38z m-109 40l58 38 38-58-58-37-38 57z m-20-13l38-58-58-38-37 58 57 38z m-31 91l58 38 38-58-58-38-38 58z m-91-31l-38 58 57 38 38-58-57-38z m71 18l38-58-58-38-38 58 58 38z m233-140l-32 48 28 19c5-23 6-46 4-67m118 67l29-19-32-48c-3 21-1 44 3 67m36 89l44-30-38-57-35 23c6 22 16 43 29 64m54 76l42-27-38-58-45 30c13 19 26 38 41 55m61 53c6 3 11 5 17 7l15-10-38-57-39 25c15 15 29 27 45 35m52-16l58-38-38-57-58 38 38 57z m17 26c21-4 42-12 65-27l-11-16-57 37 3 6z m23-135l38 58 58-38-38-58-58 38z m-51-78l38 58 57-38-37-58-58 38z m-13-20l57-38-38-58-57 38 38 58z m-65 71l38 58 57-38-37-58-58 38z m-51-78l38 58 57-38-38-57-57 37z m-8-136l-10-16c-16 12-27 28-35 46l45-30z m-44 58l38 58 58-38-38-57-58 37z m295 278c22-16 39-32 50-49l-4-6-57 38 11 17z m9 36c-67 44-126 53-180 25-46-24-82-69-122-131-37-56-55-119-52-179 2-33 10-62 25-87-5-15-10-29-14-44-7-20-13-40-20-60l-12-37c0-1 0-1-1-2-1 1-1 1-1 2l-12 37c-6 20-13 40-19 60-5 15-10 29-15 44 15 25 23 54 25 87 4 60-15 123-52 179-40 62-76 107-122 131-53 27-112 19-180-25-67-44-98-95-94-156 4-51 32-102 72-163 37-56 88-98 144-118 31-12 62-16 90-12 2-2 4-4 6-5 15-14 31-27 46-40 15-13 29-26 44-39 4-4 9-8 13-12 1 0 3-1 4-2l0-1 13-21-93-130c-1-3-2-5-4-7-2 0-4-1-5-2-4-2-8-6-10-9-5-6-7-14-7-21 1-7 3-14 8-20 3-3 7-6 10-8l13-9c4-2 7-4 12-6 14-5 30 1 38 14 2 4 4 8 5 12 0 3 0 7 0 7s1 2 1 3c1 1 2 1 2 2 6 9 11 17 17 26l51 85 51-85c6-9 11-17 17-26 0-1 1-1 2-2 0-1 1-3 1-3s0-4 0-7c1-4 3-8 5-12 8-13 24-18 38-14 5 1 8 4 12 6l13 9c3 2 7 5 10 8 5 6 7 13 8 20 0 7-2 15-7 21-2 3-6 6-10 9-1 1-3 2-5 2-2 2-3 4-4 7l-93 130 13 21 1 1c1 1 2 2 3 2 5 4 9 8 13 12 15 13 30 26 45 39 15 13 30 26 45 40 2 1 4 3 6 5 29-3 59 0 90 12 56 20 108 62 144 118 41 61 68 112 72 163 4 61-26 112-94 156" horiz-adv-x="1000" />

<glyph glyph-name="tabletenis" unicode="&#xe815;" d="M311 137l-56-211-50 13 55 211c3 9 3 22-7 53 14-6 29-11 44-15 16-4 31-7 46-9-24-22-30-33-32-42m67 224c-4 8-23 53-37 112-15 62-25 152 6 232 8 19 17 36 29 52-39-1-75-12-109-32-65-41-106-115-129-169-24-56-33-103-34-108-12-44-10-84 5-121 13-33 37-62 71-86 19-41 29-72 29-79l-62-235c-4-14 5-29 19-32l102-27c14-4 28 5 32 19l62 235c1 2 9 12 39 35 9 8 19 14 25 19 41 5 76 18 104 40 3 2 6 5 9 7-27 6-51 15-73 28-39 24-69 61-88 110m411-340l-79 203c-4 9-11 20-38 38 15 4 30 9 45 15 15 6 29 12 43 19-7-31-5-44-2-53l79-203-48-19z m-143 518c-27 0-49 21-49 48 0 27 22 49 49 49 27 0 49-22 49-49 0-27-22-48-49-48m250-504l-88 226c0 3 0 16 11 52 3 11 6 22 9 30 31 28 51 59 60 93 11 38 8 79-9 121-1 5-16 50-46 104-29 51-78 119-148 152-55 27-116 28-179 3-63-25-107-66-129-123-29-72-19-155-6-213 14-59 34-103 36-107 17-42 42-74 76-95 30-19 66-28 108-28 40-22 66-41 70-46l88-227c6-13 21-20 35-15l97 38c14 6 21 21 15 35" horiz-adv-x="1000" />

<glyph glyph-name="badminton2" unicode="&#xe816;" d="M510-41c-25 33-40 73-41 115l-1 19 283 354 37-37-278-451z m-198 216c-28 30-42 69-41 109l358 285 88-88-286-356c-2 0-4-1-5-1-44 0-85 19-114 51m-90 147c-42 1-82 16-116 41l451 278 37-37-354-283-18 1z m390 367l224-224-17-17-224 224 17 17z m148 82c42 0 82-16 112-46 62-62 62-163 0-224l-1-1-224 224 1 1c30 30 69 46 112 46m146-12c-39 39-91 61-146 61-56 0-108-22-147-61l-68-68-492-304-26-16 21-22c46-46 107-73 172-76l3 0c1-48 20-95 52-131 38-41 90-65 145-66l0-4c3-65 30-125 76-171l22-21 320 518 68 68c81 81 81 212 0 293" horiz-adv-x="1000" />

<glyph glyph-name="tennis" unicode="&#xe817;" d="M454 819c-105-10-208-55-289-135-80-81-125-184-135-289 115-13 238-72 339-173 100-101 160-224 173-339 105 9 208 55 288 135 81 81 126 183 136 289-115 13-238 72-339 173-101 101-160 224-173 339m514-454c-3 116-49 230-137 318-89 89-203 134-319 138 13-101 67-209 157-299 90-90 198-144 299-157m-940-28c3-116 49-231 137-319 89-88 203-134 319-137-13 101-67 209-157 299-90 90-198 143-299 157" horiz-adv-x="1000" />

<glyph glyph-name="gym" unicode="&#xe818;" d="M498 610c60 0 109 48 109 108 0 60-49 109-109 109-60 0-109-49-109-109 0-60 49-108 109-108m369 180c-22 0-41-15-48-36h-99c-7 21-26 36-48 36-28 0-51-23-51-50v-31c0-28 23-51 51-51 22 0 41 16 48 36h11v-100c0-5-5-10-10-10h-136c0 0-1 0-1 0-1 0-1 0-1 0h-169c-1 0-1 0-1 0-1 0-1 0-1 0h-136c-6 0-10 5-10 10v100h9c6-20 25-36 48-36 27 0 50 23 50 51v31c0 28-23 50-50 50-23 0-42-15-48-36h-99c-7 21-26 36-48 36-28 0-51-23-51-50v-31c0-28 23-51 51-51 22 0 41 16 48 36h18v-163c0-16 14-30 30-30h160v-251l-55-128c-7-14-12-38-12-54v-157c0-20 17-36 37-36h31c20 0 36 16 36 36v157c0 13 5 34 11 46l48 102h35l50-104c5-12 10-33 10-46v-157c0-20 16-36 36-36h32c20 0 36 16 36 36v157c0 16-5 40-12 54l-54 123c0 1 0 2 0 3v255h159c17 0 30 14 30 30v163h18c6-20 25-36 48-36 27 0 50 23 50 51v31c0 28-23 50-51 50" horiz-adv-x="1000" />

<glyph glyph-name="diving" unicode="&#xe819;" d="M127 249c30 60 62 60 107 60 20 0 41 0 64 6l143 9-6 103-185-12c-28-2-50-26-48-55 0-7 2-14 5-20-40-2-80-15-111-84-29-1-55-19-65-48-7-20-4-40 6-57l-10-28 66-23 6 15c3 1 5 1 8 1 11-9 26-9 37 0 7 7 10 17 8 26 5 6 9 13 12 21 12 34-5 71-37 86m836 92c-34-3-59 43-59 127-28 26-163-116-163-116l1-1c-31-22-62-42-93-63 15 44 30 88 43 132 1 2 1 3 1 4l115 104c-77 31-47 74-131 109-25-7-51-155-56-186-2-3-3-6-5-10-14-49-31-97-48-145-112 34-231 16-344-12-59-15-59-84-25-115 5-8 12-14 24-16 68-12 129-40 185-80 41-29 80 39 39 68-19 14-39 26-60 37 58 6 116 2 174-20 25-9 53 3 70 23 54 38 110 72 164 111 1 1 2 2 4 3 59 15 191 49 164 46m-448 91l6-103-68-5-6 103 68 5z" horiz-adv-x="1000" />

<glyph glyph-name="snorkelling" unicode="&#xe81a;" d="M397 273l0 0c19 0 36-13 40-31 15-64 73-112 142-112h23c90 0 163 73 163 163v38c0 34-28 62-62 62h-612c-34 0-62-28-62-62v-38c0-90 73-163 163-163h24c68 0 126 48 141 112 5 18 21 31 40 31m572 470c0 19-15 34-34 34h-102c-18 0-34-15-34-34 0-19 16-34 34-34h3v-436c0-126-102-228-228-228h-65c-12 10-28 17-45 17h-101c-37 0-68-31-68-68 0-38 31-68 68-68h101c17 0 33 7 45 17h65c182 0 330 148 330 330v437c17 1 31 15 31 33" horiz-adv-x="1000" />

<glyph glyph-name="boathire" unicode="&#xe81b;" d="M964 255c-2 2-5 3-9 3l-917-84c-4 0-7-2-8-4-2-3-3-6-2-10 15-58 169-132 220-127 24 2 38 9 54 17 24 12 49 24 99 24s74-12 98-24c21-10 37-18 73-18 37 0 62 13 72 18 24 12 49 24 99 24 3 0 6 0 10-1 1 0 2 1 4 1 127 45 206 109 210 172 1 3 0 7-3 9m-512 352c14-87 28-214 10-323-1-4 0-7 3-10 2-2 5-3 8-3h1l331 30c3 0 6 2 8 5 2 2 3 6 2 9-7 24-27 89-72 165-50 85-144 204-308 291-4 2-9 2-12-1-3-3-5-7-4-11 8-28 22-84 33-152m-274-363h1l206 19c5 0 9 4 10 9 16 88-2 240-11 301-1 4-3 7-7 9-3 1-8 0-11-2-151-121-190-278-199-323 0-3 1-7 3-9 2-3 5-4 8-4m565-212c-50 0-76-12-99-23-20-10-36-18-72-18-36 0-52 8-73 18-23 11-49 23-98 23s-76-12-99-23c-21-10-37-18-73-18-35 0-52 8-72 18-23 11-49 23-99 23v-60c36 0 52-8 73-18 23-11 49-24 99-24 49 0 75 13 98 24 21 10 37 18 73 18s52-8 72-18c23-11 49-24 99-24 50 0 76 13 99 24 20 10 36 18 72 18 36 0 52-8 73-18 23-11 49-24 99-24v61c-36 0-53 7-73 17-23 12-49 24-99 24" horiz-adv-x="1000" />

<glyph glyph-name="canoe" unicode="&#xe81c;" d="M420 511c38 0 68 31 68 68s-30 68-68 68c-38 0-68-30-68-68s30-68 68-68m28-343c43 19 95 12 129-20l1 1c45 41 115 41 159-1 31 28 74 36 113 26 64 43 102 98 102 159 0 18-3 36-10 53-4 9-11 15-19 18-8 2-18 1-25-3-101-63-238-102-390-104l-60-129z m511-44c-12 12-31 12-43 0-10-10-27-10-37 0-33 33-90 33-123 0-10-10-27-10-37 0-33 33-87 34-121 2l-2-2c-10-10-27-10-37 0-33 33-90 33-123 0-10-10-27-10-37 0-1 1-2 2-3 3l129 278 32 17c15 8 21 27 13 41-3 6-7 10-12 13l45 98c4 8 1 17-7 20-8 4-17 1-20-7l-53-114-71-38-58 45c-5 16-32 39-65 32-20-4-38-18-45-38l-51-136c-50 17-96 38-135 63-8 4-17 6-26 3-8-3-15-9-18-17-7-18-11-36-11-54 0-60 38-115 102-158 39 11 82 2 113-27 25 24 61 34 95 30l57 124c-19 2-39 4-58 8l37 98 41-32c6-5 12-7 19-7 5 0 10 1 14 4l18 9-111-239c-31 12-69 5-94-19-10-10-27-10-37 0-34 34-89 34-123 0-9-10-27-10-37 0-11 12-31 12-42 0-12-12-12-31 0-43 32-33 90-33 122 0 11 10 27 10 37 0 17-16 39-25 62-25 23 0 45 9 61 25 10 10 27 10 37 0 33-33 90-33 123 0 10 10 27 10 37 0 32-32 88-33 121-2l2 2c10 10 27 10 37 0 33-33 90-33 123 0 10 10 27 10 37 0 33-33 90-33 123 0 11 12 11 31 0 43" horiz-adv-x="1000" />

<glyph glyph-name="catamaran" unicode="&#xe81d;" d="M932 33l-95-71c-6-4-18-5-24-1l-84 56c-21 14-54 14-76 0l-86-56c-6-4-20-4-26 0l-89 56c-23 14-55 13-76-3l-70-52c-6-4-18-5-24-1l-86 56c-22 14-55 12-76-5l-83-69c-10-8-11-23-3-32 5-6 11-9 18-9 5 0 10 2 15 6l83 69c5 4 16 5 22 1l86-55c22-15 55-14 76 2l69 52c6 5 18 5 24 1l89-56c22-14 55-14 76 1l86 55c7 4 20 4 26 0l84-55c22-15 55-14 76 2l96 71c10 7 12 21 5 32-8 10-22 12-33 5m-469 121l240 82c17 6 33 25 35 43 19 229-180 434-370 519-17 7-28-2-26-20l86-603c2-18 18-27 35-21m-251-91l81-53 68 50c28 22 73 24 103 5l28-18c24 9 51 18 80 28 90 30 154 93 183 126 10 10-3 44-15 38-113-65-274-110-391-137 5 8 8 17 9 27l-35-16c-19 9-14 28-14 28l40 18c-9 12-23 20-39 21-27 0-49-21-50-48 0-19 10-35 25-44-28-5-50-10-66-12-5-1-7-6-7-13" horiz-adv-x="1000" />

<glyph glyph-name="waterski" unicode="&#xe81e;" d="M346 626c40 35 46 96 11 136-34 41-95 47-136 12-41-34-46-95-12-136s96-46 137-12m-39-27c-46-13-72-60-60-105l41-148c9-31 34-54 64-60l93-86 10-127c0-4 1-7 2-11h-163c-11 0-21-9-21-21 0-12 10-21 21-21h448c6 0 141 1 168 87 4 12-3 24-14 27-11 4-23-3-27-14-14-47-97-58-127-58h-183c2 6 3 13 2 20l-12 147c-1 14-7 26-17 35l-82 76c6 16 7 34 2 52l-34 124 164 6c15 0 28 11 33 25h256c6 0 11 5 11 11 0 5-5 10-11 10h-256c-5 15-19 26-36 25l-200-7c-20 14-47 20-72 13m543-650c-25 0-36 5-50 12-15 8-33 17-68 17s-52-9-68-17c-14-7-25-13-49-13s-36 6-49 13c-16 8-34 17-69 17s-52-9-68-17c-14-7-25-13-49-13-25 0-36 6-49 13-16 8-34 17-69 17-34 0-52-9-68-17-14-7-25-13-49-13-25 0-35 6-49 13-16 8-34 17-69 17v-42c25 0 36-6 49-13 16-8 34-17 69-17s52 9 68 17c14 7 25 13 49 13 25 0 36-6 49-13 16-8 34-17 69-17s52 9 68 17c14 7 25 13 49 13 24 0 35-6 49-13 16-8 34-17 69-17 34 0 52 9 68 17 14 7 25 13 49 13 24 0 35-6 49-13 16-8 34-17 69-17s52 9 68 17c14 7 25 13 49 13v42c-34 0-52-9-68-17-14-7-25-12-49-12" horiz-adv-x="1000" />

<glyph glyph-name="jetski" unicode="&#xe81f;" d="M965 133c-27 0-48 22-48 48 0 2-1 3-2 3-1 0-1-1-1-1-1 0-1 1-1 1-2 0-3-1-3-3 0-26-21-48-48-48-26 0-47 22-47 48 0 2-1 3-3 3 0 0 0-1-1-1 0 0 0 1-1 1-1 0-2-1-2-3 0-26-21-47-48-48-26 0-47 22-47 48 0 2-1 3-3 3 0 0 0-1-1-1 0 0 0 1-1 1-1 0-2-1-2-3 0-26-21-48-48-48-26 0-48 22-48 48 0 2-1 3-2 3 0 0-1-1-1-1 0 0 0 1-1 1-1 0-2-1-2-3 0-26-22-48-48-48-26 0-48 22-48 48 0 2-1 3-2 3-1 0-1-1-1-1-1 0-1 1-1 1-2 0-2-1-2-3 0-26-22-47-48-48-26 0-48 22-48 48 0 2-1 3-2 3-1 0-1-1-1-1-1 0-1 1-1 1-2 0-3-1-3-3 0-26-21-48-48-48-26 0-48 22-48 48 0 2-1 3-2 3 0 0-1-1-1-1 0 0 0 1-1 1-1 0-2-1-2-3 0-26-22-48-48-48-26 0-48 22-48 48 0 2-1 3-2 3 0 0-1-1-1-1 0 0-1 1-1 1-1 0-2-1-2-3 0-26-22-47-48-48-26 0-48 22-48 48 0 2-1 3-2 3 0 0-1-1-1-1 0 0 0 1-1 1-1 0-2-1-2-3 0-26-22-48-48-48-1 0-2-1-2-2 0-1 1-2 2-2 25 0 46 18 51 42 5-24 26-42 51-42h0c25 0 46 18 51 42 5-24 26-42 51-42 26 0 47 18 52 42 4-24 26-42 51-42 25 0 46 18 51 42 5-24 26-42 51-42h0c25 0 46 18 51 42 5-24 26-42 51-42 25 0 46 18 51 42 5-24 26-42 51-42 25 0 46 18 51 42 5-24 26-42 51-42h1c25 0 46 18 50 42 5-24 26-42 51-42 26 0 47 18 52 42 5-24 26-42 51-42 1 0 2 1 2 2 0 1-1 2-2 2m-51 48l2-10c4-23 25-40 49-40l0 0c-28 1-50 23-50 50l-1 0-1 0c-1-27-23-50-50-50-28 0-50 23-50 50l-1 0-2 0c0-27-22-49-49-50-28 1-50 23-50 50l-1 0-1 0c-1-27-23-50-50-50-28 0-50 23-50 50l-1 0-2 0c0-27-22-50-50-50s-50 23-50 50l-1 0-1 0c0-27-22-49-50-49-27 0-50 22-50 50l-1-1-1 0c0-27-22-49-50-49-28 0-50 22-50 50l-1-1-1 1c0-28-23-50-50-50-28 0-50 22-50 50l-1-1-2 1c0-28-22-50-50-50-27 0-49 22-49 50l-1-1-2 1c0-28-22-50-50-50h1c24 0 44 16 49 39l2 10 2-10c4-23 25-40 48-40h1c23 1 44 17 49 40l2 10 2-10c4-23 25-40 49-40 24 0 44 17 49 40l2 10 2-10c5-23 26-40 49-40 24 0 45 17 49 40l2 10 2-10c5-23 26-40 49-40h1c23 1 44 17 49 40l2 10 2-10c4-23 25-40 49-40 24 0 44 17 49 40l2 10 2-10c5-23 26-40 49-40 24 0 45 17 49 40l2 10 2-10c5-23 26-40 49-40h1c23 1 44 17 48 40l2 10 2-10c5-23 26-40 50-40 23 0 44 17 49 40l1 10z m51-54c-23 0-44 15-51 36-8-21-28-36-52-36-23 0-43 15-51 36-7-21-27-35-50-36l-1 0v0c-23 1-43 15-51 36-7-21-28-36-51-36-23 0-43 15-51 36-7-21-28-36-51-36s-44 15-51 36c-8-21-28-35-50-36v0l-1 0c-23 0-44 15-51 36-8-21-28-36-51-36-23 0-44 15-51 36-8-21-28-36-51-36-24 0-44 15-52 36-7-21-27-35-50-36v0h-2v0c-22 1-42 15-50 36-7-21-28-36-51-36-2 0-4 2-4 4 0 3 2 4 4 4 26 0 46 21 46 46 0 3 2 4 4 4 1 0 1 0 1 0 1 0 1 0 1 0 3 0 5-1 5-4 0-25 20-46 45-46 26 0 46 21 46 46 0 3 2 4 4 4 1 0 1 0 1 0 1 0 1 0 1 0 3 0 5-1 5-4 0-25 20-46 46-46 25 0 46 21 46 46 0 3 2 4 4 4 0 0 1 0 1 0 0 0 1 0 1 0 2 0 4-1 4-4 0-25 21-46 46-46 26 0 46 21 46 46 0 3 2 4 4 4 1 0 1 0 1 0 1 0 1 0 1 0 3 0 4-1 4-4 0-25 21-46 46-46 25 0 46 21 46 46 0 3 2 4 4 4 0 0 1 0 1 0 0 0 1 0 1 0 2 0 4-1 4-4 0-25 21-46 46-46 26 0 46 21 46 46 0 3 2 4 4 4 1 0 1 0 1 0 1 0 1 0 2 0 2 0 4-1 4-4 0-25 20-46 46-46 25 0 46 21 46 46 0 3 2 4 4 4 0 0 1 0 1 0 0 0 1 0 1 0 2 0 4-1 4-4 0-25 21-46 46-46 25 0 46 21 46 46 0 3 1 4 4 4 0 0 0 0 1 0 0 0 0 0 1 0 2 0 4-1 4-4 0-25 21-46 46-46 25 0 46 21 46 46 0 3 2 4 4 4 1 0 1 0 1 0 1 0 1 0 1 0 2 0 4-1 4-4 0-25 21-46 46-46 3 0 4-1 4-4 0-2-2-4-4-4m-867 85l0 0 0 0z m765-22c17 0 31 10 44 29-4-21-23-37-45-37-9 0-17 3-24 8h25z m102-8c-26 0-46 21-46 46 0 2-2 4-4 4 16 30 22 64 23 65 0 2 0 4-2 5-1 2-2 3-4 3h-897c-2 0-4-1-5-3-1-1-1-3-1-5 0 0 15-57 58-88-8-16-24-27-42-27-2 0-4-2-4-4 0-2 2-4 4-4 21 0 40 12 49 30 2-1 4-2 7-4l0 0c10-16 27-26 45-26h2c23 1 43 15 50 36 8-21 28-36 52-36 23 0 43 15 51 36 7-21 28-36 51-36 23 0 43 15 51 36 7-21 28-36 51-36h1c23 0 43 15 50 36 7-21 28-36 51-36s44 15 51 36c8-21 28-36 51-36 24 0 44 15 52 36 7-21 27-36 50-36h1c23 0 43 15 50 36 8-21 28-36 52-36 23 0 43 15 51 36 7-21 28-36 51-36 2 0 4 2 4 4 0 2-2 4-4 4m-180 269l14 34c14-13 28-27 42-42l-56 8z m-750-126h897c2 0 4 1 5 3 1 2 1 4 0 6 0 0-28 50-75 104 0 0-1 0-1 1-52 59-104 100-155 120-29 11-50 17-65 17-11 0-19-4-22-11-7-14 7-36 14-46l-2-2-34 27c-1 1-3 1-4 1h-55c-3 0-6-2-6-5v-23c0-4 3-6 6-6h45l25-19-75-84c-176 17-290 52-323 97-14 20-23 29-32 29-4 0-7-2-9-5-12-15 1-85 11-127h-94c-2 0-3 0-4-2l-52-66c-1-1-1-4 0-6 0-2 3-3 5-3" horiz-adv-x="1000" />

<glyph glyph-name="windsurfing" unicode="&#xe820;" d="M905-36c-19 9-39 14-60 14-20 0-39-5-58-14-18-8-37-12-57-12-19 0-38 4-57 12-19 9-39 14-59 14-19 0-39-5-59-14-18-8-37-12-57-12-19 0-38 4-57 12-18 9-38 14-58 14-20 0-40-5-60-14-18-8-37-12-57-12-19 0-38 4-57 12-18 9-37 14-58 14-20 0-39-5-58-14-19-8-39-12-59-12v-84c20 0 40 4 59 11 19 10 38 14 58 14 21 0 40-4 58-14 19-7 38-11 57-11 20 0 39 4 57 11 20 10 40 14 60 14 20 0 40-4 58-14 19-7 38-11 57-11 20 0 39 4 57 11 19 10 38 14 58 14 20 0 40-4 60-14 19-7 38-11 57-11 20 0 39 4 57 11 19 10 38 14 58 14 20 0 40-4 60-14 19-7 38-11 57-11v84c-20 0-39 4-57 12m-771 391c16 0 30 5 41 16 11 11 16 24 16 39 0 16-5 29-16 40-12 10-25 16-41 16s-28-6-39-16c-10-11-16-24-16-40 0-15 5-28 16-39 11-11 24-16 39-16m177-61l99 42c7 5 11 12 11 21 0 8-2 15-7 20-6 5-12 8-20 8-4 0-7-1-10-2l-88-40h-132c-16 0-29-5-40-17-11-11-17-24-17-40v-14l61-131c9-21 27-32 53-32h159l93-90c8-7 17-10 26-11 10-1 19 3 27 11 16 17 15 33-2 49l-106 96c-4 4-13 6-26 6h-108l-49 120h59l17 4z m197 104c-10 0-16 6-16 16 0 8 3 13 8 14 14 5 36 9 66 13 29 3 66 4 110 3 44-2 87-14 130-37 42-23 76-56 99-99 3-5 4-9 4-12 0-10-5-15-16-15-6 0-10 1-11 4-4 6-8 12-11 17-3 6-11 14-22 26-11 12-22 22-34 31-12 8-28 17-48 27-21 10-42 17-65 21-23 4-51 5-84 5-33-1-67-5-102-13h-8z m419-129c-4 76-27 148-70 216-43 68-95 126-158 173-63 47-131 86-205 117-73 31-145 51-216 60l311-779 338 213z" horiz-adv-x="1000" />

<glyph glyph-name="dolphin" unicode="&#xe821;" d="M206 681c-7 0-12 4-12 9 0 5 5 9 12 9 7 0 12-4 12-9 0-5-5-9-12-9m608-509c-12 173-83 319-182 420-19 55 30 78 57 86 2 1 4 3 5 6 0 3-2 6-4 7-57 30-141-1-167-11-53 32-110 54-168 61-217 29-228-36-280-88-7-8-42-21-46-30-3-7 1-18 8-22 22-14 82-3 131-2 24 0 49-5 74-13 13-13 30-34 46-71 25-55 89-66 125-65 4 0 8 3 9 6 1 4-1 8-4 10-20 14-48 37-57 67 23-11 48-24 76-38 84-42 212-98 312-279 13-24 24-40 32-51-13-16-43-53-36-69 2-7 43 14 83 12 3-1 5 0 7 2 2 2 3 4 3 7v7l11-7c6-4 13-6 20-7 27-5 100-14 99-2-1 20-89 59-154 64m-603 57c-122-101 33-186 125-205 4-1 8 1 10 5 1 3 0 8-3 10-29 21-63 57-29 94 47 50 190 60 354-21-87 22-239 44-293-60-46-87 53-103 116-96 4 0 7 4 8 8 0 4-2 7-6 9-20 7-40 20-30 46 17 44 104 88 234 78 1 0 2 1 3 2 1 1 1 3-1 4-80 69-329 259-488 126" horiz-adv-x="1000" />

<glyph glyph-name="fishing" unicode="&#xe822;" d="M246 670c0 60-49 108-109 108-60 0-109-48-109-108 0-60 49-109 109-109 60 0 109 49 109 109m701-649c-18 0-25 7-37 16-14 12-31 27-64 27-33 0-50-15-64-27-5-4-9-7-14-10l-139 658c9 4 13 14 11 24-3 11-15 18-26 15-164-41-228-234-250-326l-111-29c-6-2-12 2-14 7l-36 122c0 1 0 1 0 2-3 15-16 26-32 26h-68c-18 0-32-14-32-32v-328c0-14 9-25 21-30 5-3 10-4 17-5l142-1c9 0 17-7 17-17v-151c0-21 17-38 39-38h25c11 0 20 4 28 11 7 7 11 17 11 27l-3 235c0 21-18 39-39 39h-126v34c4-1 8-2 12-2 3 0 6 1 10 2l150 51c5 1 10 5 15 9 2 2 4 5 6 8 4 6 6 14 6 21v11c15 71 67 261 207 308l139-657c-1 0-2 0-3 0-17 0-25 7-36 17-14 11-32 26-65 26-33 0-50-15-64-26-12-10-19-17-37-17-17 0-25 7-36 17-14 11-31 26-65 26-11 0-21-10-21-21s10-22 21-22c18 0 25-6 37-16 14-12 31-27 64-27 33 0 51 15 64 27 12 10 20 16 37 16 17 0 25-6 37-16 13-12 31-27 64-27 33 0 50 15 64 27 12 10 19 16 37 16s25-6 36-16c14-12 32-27 65-27 12 0 21 10 21 22 0 12-9 21-21 21m-733 91h-111c-18 0-32-14-32-32v-118c0-17 14-32 32-32h111c18 0 32 15 32 32v118c0 18-15 32-32 32" horiz-adv-x="1000" />

<glyph glyph-name="photoflight" unicode="&#xe823;" d="M625 578c11-31 19-57 28-81 1-3 4-6 7-7 31-9 55 1 70 28 6 11 5 18-7 24-17 9-33 19-50 26-13 5-28 6-48 10m0-88c-10 28-18 52-27 77-25-5-49-10-73-16-31-9-62-18-92-29-6-2-10-14-12-22-1-2 10-10 16-10 24-1 48-1 71-1 38 0 75 1 117 1m-200-227h283c-10 26-19 51-29 76-1 3-8 7-12 7-67 0-134 0-201 0-4 0-11-5-13-9-10-24-18-48-28-74m5 83c-56 8-108 17-161 25-42 6-84 12-126 19-36 6-60 24-69 63-12 57-28 114-43 171-1 6-2 11-4 21 30-3 57-4 84-7 5-1 10-8 13-14 13-28 27-57 39-86 12-27 27-41 60-41 53 1 102 6 151 29 80 38 168 53 254 71 22 4 44 2 63-11 60-41 130-44 198-51 3 0 5 1 10 1 0 36-1 72 0 107 0 10-7 26 10 27 16 0 11-16 11-26 1-36 0-71 0-107 14-4 30-6 27-23-2-9-14-16-21-24-2 1-4 2-6 3v-103c0-6 2-12 0-16-3-7-7-13-11-19-4 6-10 12-10 18-1 31 0 62 0 93v17c-1 1-3 1-4 2-13-20-28-39-39-60-21-44-56-66-104-69-16-2-31-6-49-9 10-27 20-53 30-79 2-4 11-6 17-6 65 0 130 0 195 0 7 0 18-4 20-9 4-11 4-24-9-30-22-11-44-21-67-29-5-2-13 0-19 2-38 12-74 12-111-4-31-13-62-14-93 0-41 17-83 18-124 0-31-13-62-13-94 0-41 17-82 17-124 0-7-2-15-3-23-1-41 10-82 20-123 32-7 2-16 8-18 15-6 16 1 23 20 23 67 1 134 1 201 0 13 0 19 4 23 16 7 23 17 45 26 69m-369-313v81c33 8 65 18 97 23 17 3 37 1 53-6 45-17 88-18 133 0 28 12 57 12 85 0 45-18 88-18 133 1 27 11 57 11 85-1 44-18 87-18 130 0 29 12 58 10 87 1 21-7 42-12 64-19v-80c-19 5-37 8-54 15-36 13-71 14-107-1-37-15-74-15-111 1-35 14-70 14-105 0-37-16-75-16-113 0-35 14-69 14-104 0-37-16-75-16-112 0-35 14-70 13-106 0-17-7-35-10-55-15" horiz-adv-x="1000" />

<glyph glyph-name="submarine" unicode="&#xe824;" d="M967 430c0 21-15 31-34 21 0 0-110-60-112-62-26-19 9-3 9-119 0-111-34-93-9-112 2-2 112-70 112-70 18-11 33-3 33 19l0 74c0 22-24 84-24 88 0 5 25 70 25 91l0 70z m-359-217c-38 0-69 31-69 69 0 38 31 69 69 69s70-30 70-69c-1-38-31-69-70-69m-182 0c-38 0-69 31-69 69 0 38 31 69 69 69s69-30 69-69c0-38-31-69-69-69m-182 0c-39 0-70 31-70 69 0 38 31 69 70 69s69-30 69-69c0-38-31-69-69-69m293 261c0 2 1 4 1 7 0 18-15 32-33 32h-1c2 3 2 6 2 9 0 13-10 23-23 23h-25v69c0 7-3 12-8 17-4 4-9 7-16 7h-65c-12 0-21-10-21-22 0-12 9-22 21-22h45v-49h-43c-13 0-23-10-23-23 0-3 0-6 1-9h-1c-18 0-33-14-33-32 0-2 1-4 1-5-166-22-289-104-289-203 0-115 168-208 374-208 306 0 371 82 384 101 11 18 20 36 20 107 0 74-8 88-20 106-11 16-74 74-248 95" horiz-adv-x="1000" />

<glyph glyph-name="maxroom" unicode="&#xe825;" d="M189 638c0 103 22 187 153 187 130 0 152-84 152-187 0-102-68-185-152-185-85 0-153 83-153 185z m352-233c-29 15-66 25-116 34 0 0-25-32-83-32s-84 32-84 32c-177-32-202-82-206-256v-14-1-17c0 0 43-87 289-87 18 0 35 1 50 2-7 24-10 49-10 75 0 115 64 215 160 264z m402-267c0-14-2-29-4-43-19-110-105-196-215-214-14-3-28-4-43-4-99 0-185 55-230 136-20 37-32 80-32 126 0 20 3 40 7 59 5 19 11 36 19 53 15 32 37 61 64 84 15 14 31 25 49 34 37 20 79 31 123 31 46 0 88-11 126-32 81-45 136-131 136-230z m-56 0c0 114-92 207-206 207-40 0-78-12-110-32-18-11-34-25-47-41-12-14-22-30-30-47-8-16-13-34-17-53-1-11-3-22-3-34 0-113 93-206 207-206 11 0 21 1 32 3 88 14 158 83 172 171 1 11 2 21 2 32z m-157 10c30 17 45 38 45 65 0 20-7 37-22 52-17 18-41 28-70 28-17 0-32-3-46-10-14-6-24-15-32-26-8-11-13-26-17-45l54-9c2 13 6 23 13 30 8 7 16 11 26 11 11 0 19-3 25-9 6-6 9-15 9-25 0-12-4-22-12-30-9-7-21-10-37-10l-7-48c11 3 20 4 28 4 11 0 21-4 29-13 8-9 12-21 12-35 0-16-4-29-13-38-8-9-18-14-31-14-11 0-21 4-29 12-8 7-13 19-15 33l-57-7c3-26 14-47 32-63 18-16 42-24 70-24 29 0 54 9 74 28 19 20 29 43 29 70 0 18-5 34-16 48-10 13-24 22-42 25z" horiz-adv-x="1000" />

<glyph glyph-name="norooms" unicode="&#xe826;" d="M622 486l-4 6v213l-29 29h-457l-30-29v-213l-73-116h451c34 50 84 89 142 110z m-460 40v148h396v-148c-38 10-104 22-198 22-94 0-160-12-198-22z m-134-186h432c-9-20-16-40-21-60h-283v-82h-58v82h-70v60z m308 274v-35c0 0-43-2-67-5-27-2-67-12-67-12v52c0 20 30 37 67 37 37 0 67-16 67-37z m182 0v-52c0 0-40 10-66 13-25 2-68 4-68 4v35c0 21 30 38 67 38 37-1 67-17 67-38z m320-179c-36 20-76 31-120 31-42 0-82-11-117-30-17-9-32-20-46-32-26-22-47-50-61-80-8-16-14-33-18-51-4-18-7-37-7-56 0-44 11-85 31-120 42-77 124-129 218-129 14 0 28 1 41 3 105 18 187 100 205 205 2 13 4 27 4 41 0 94-53 176-130 218z m74-249c-13-84-79-150-163-164-10-1-20-2-31-2-108 0-197 88-197 196 0 11 2 22 3 32 3 18 9 35 16 51 8 16 17 31 28 45 13 15 29 28 45 39 31 19 67 30 105 30 109 0 197-88 197-196 0-11-1-21-3-31z m-199-44c-5-5-9-12-12-16h119v-56h-210c2 20 9 41 20 60 12 19 34 44 68 75 27 25 43 42 49 51 9 12 13 25 13 37 0 13-4 23-11 31-7 7-17 10-30 10-12 0-22-4-30-11-7-7-11-20-13-38l-59 6c3 33 14 57 33 71 19 15 42 22 70 22 31 0 55-8 73-25 18-16 26-37 26-62 0-14-2-28-7-40-5-13-13-26-24-40-7-9-21-23-39-40-19-18-31-29-36-35z" horiz-adv-x="1000" />

<glyph glyph-name="livingroom" unicode="&#xe827;" d="M968 445v-440c0-26-21-48-47-48-26 0-47 22-47 48v419l-386 219-366-219v-419c0-26-21-47-47-48-26 0-47 22-47 48v440c0 8 2 15 5 21 3 11 10 21 21 28l409 244c15 9 33 9 48 1l430-245c12-7 20-18 23-31 3-5 4-11 4-18z m-730-233h94v-140h-62l-11-32c-2-4-6-8-11-8-1 0-3 0-4 1-6 2-9 9-7 15l8 24h-7c-20 0-36 16-36 36v67c0 20 16 37 36 37z m50-72c0-6 5-12 12-12 7 0 12 6 12 12v11c0 7-5 12-12 12-7 0-12-5-12-12v-11z m480 35v-67c0-20-16-36-36-36h-7l8-24c2-6-1-13-7-15-2-1-3-1-4-1-5 0-10 3-11 8l-11 32h-62v140h94c20 0 36-17 36-37z m-86-24c0 7-6 12-12 12-7 0-12-5-12-12v-11c0-6 5-12 12-12 6 0 12 6 12 12v11z m-145 61h77v-140h-258v140h77c1 6 6 10 12 10h29v14h-170c-11 0-20 9-20 20v188c0 11 9 20 20 20h361c12 0 21-9 21-20v-188c0-11-9-20-21-20h-169v-14h29c6 0 11-4 12-10z m29-56h-162c-6 0-12-6-12-12 0-6 6-12 12-12h162c6 0 12 5 12 12 0 6-6 12-12 12z" horiz-adv-x="1000" />

<glyph glyph-name="aircondition" unicode="&#xe828;" d="M968 573v-164c0-49-40-89-88-89h-34l-6 44c-4 24-46 44-94 44h-485c-49 0-93-20-98-44-6-24-10-44-10-44h-37c-49 0-88 40-88 89v164c0 41 28 75 65 85-2-8-3-17-3-26v-35c0-59 47-107 105-107h605c59 0 106 48 106 107v35c0 9-1 17-3 26 37-10 65-44 65-85z m-844 24v35c0 10 3 20 7 30h733c4-10 6-19 6-30v-35c0-39-31-71-70-71h-605c-39 0-71 32-71 71z m27 24c0-5 4-9 9-9h665c5 0 9 4 9 9 0 5-4 9-9 9h-665c-5 0-9-4-9-9z m0-55c0-5 4-8 9-8h665c5 0 9 3 9 8 0 5-4 8-9 8h-665c-5 0-9-3-9-8z m569-180h-438c-49 0-91-15-94-33-3-18-6-33-6-33h635l-5 33c-2 18-44 33-92 33z m-439-143c8 6 9 17 3 25-6 7-17 8-25 2-18-14-43-55-3-106 30-38-16-93-17-93-6-8-5-19 2-25 3-3 7-5 12-5 5 0 9 2 13 6 3 4 66 78 18 139-27 34-7 53-3 57z m155 0c7 6 8 17 2 25-6 7-17 8-25 2-18-14-42-55-2-106 30-38-17-93-18-93-6-8-5-19 2-25 4-3 8-5 12-5 5 0 10 2 13 6 3 4 66 78 18 139-26 34-7 53-2 57z m154 0c7 6 8 17 2 25-6 7-17 8-24 2-19-14-43-55-3-106 30-38-17-93-17-93-7-8-6-19 1-25 4-3 8-5 12-5 5 0 10 2 13 6 3 4 67 78 18 139-26 34-7 53-2 57z m154 0c7 6 9 17 3 25-7 7-18 8-25 2-19-14-43-55-3-106 30-38-17-93-17-93-6-8-6-19 2-25 3-3 7-5 11-5 5 0 10 2 13 6 3 4 67 78 19 139-27 34-7 53-3 57z" horiz-adv-x="1000" />

<glyph glyph-name="ceilingfan" unicode="&#xe829;" d="M545 436c-13 38-12 85-12 85s199 289 235 272c36-17-64-354-64-354s-42-36-84-47c-9 15-22 27-38 35-12 5-24 8-37 9z m81-132c0 0 0-1-1-1-11-23-31-40-55-48-12-38-9-84-9-84s209-283 244-265c35 19-75 352-75 352s-58 46-104 46z m-169 1c-10 22-11 47-3 70-25 35-75 60-75 60s-349-38-351-78c-2-40 341-112 341-112s61 24 88 60z m117 107c-6 3-13 4-20 6-4 0-8 1-12 1-29 0-56-17-69-43-4-8-5-15-7-24-1-8 0-16 2-25 0-3 1-6 2-9 7-19 20-35 39-43 10-5 21-8 32-8 14 0 28 4 39 11 10 5 18 13 24 22 2 3 4 7 6 10 13 27 8 58-9 80-7 9-16 16-27 22z m-125-412c-21 6-41 13-60 23-65 30-118 79-153 140l-15-9c38-64 93-115 160-147 21-10 43-18 66-24l-40-56 174 54-163 83 31-64z m519 443l-137 120 13-182 39 59c23-83 16-171-21-250-6-11-12-23-19-34l15-9c7 11 13 24 19 36 40 83 47 176 22 264l69-4z m-669 160c53 48 119 81 190 91l-2 17c-76-11-147-46-202-98l-28 64-44-177 156 95-70 8z" horiz-adv-x="1000" />

<glyph glyph-name="iddphone" unicode="&#xe82a;" d="M740 224c-60 14-136 51-164 96-15 25-17 54-4 78 0 1 2 3 3 5-1 5 0 13 4 22 0 0 0 1 1 1h-307c0 0-1 0-1-1v0c8-10 13-20 17-26 12-25 11-54-5-79-27-45-104-82-163-96l-17-277c-2-30 18-55 44-55h564c26 0 46 25 45 55l-17 277z m-402-190h-53c-9 0-17 7-17 17 0 10 8 17 17 17h53c10 0 18-7 18-17 0-10-8-17-18-17z m0 66h-53c-9 0-17 8-17 18 0 10 8 18 17 18h53c10 0 18-8 18-18 0-10-8-18-18-18z m0 68h-53c-9 0-17 8-17 18 0 10 8 18 17 18h53c10 0 18-8 18-18 0-10-8-18-18-18z m119-134h-53c-10 0-18 7-18 17 0 10 8 17 18 17h53c10 0 18-7 18-17 0-10-8-17-18-17z m0 66h-53c-10 0-18 8-18 18 0 10 8 18 18 18h53c10 0 18-8 18-18 0-10-8-18-18-18z m0 68h-53c-10 0-18 8-18 18 0 10 8 18 18 18h53c10 0 18-8 18-18 0-10-8-18-18-18z m119-134h-53c-10 0-18 7-18 17 0 10 8 17 18 17h53c9 0 17-7 17-17 0-10-8-17-17-17z m0 66h-53c-10 0-18 8-18 18 0 10 8 18 18 18h53c9 0 17-8 17-18 0-10-8-18-17-18z m0 68h-53c-10 0-18 8-18 18 0 10 8 18 18 18h53c9 0 17-8 17-18 0-10-8-18-17-18z m364 256l-38 18c58 123 5 270-117 328l17 38c144-68 206-240 138-384z m-155 118c0-5 1-10 1-15-5-29-20-55-29-83-12-35-190-8-179 38 4 17 25 66 23 83-2 16-24 23-43 20-49-8-110-26-161-39-2 0-3-1-5-1-1 0-2-1-4-1v0c-52-12-114-23-162-39-18-6-35-22-29-37 6-16 47-51 59-64 31-35-116-141-143-115-21 20-46 37-63 61-3 4-4 9-6 13-49 101 16 232 153 277 52 17 105 32 157 46v0c2 1 3 1 4 1 2 0 3 1 4 1l1 0c53 12 107 22 161 31 141 22 259-65 261-177z m90-87l-37 18c41 87 3 191-84 232l18 38c108-51 154-180 103-288z" horiz-adv-x="1000" />

<glyph glyph-name="safe" unicode="&#xe82b;" d="M403 375c0-34-28-62-62-62-34 0-62 28-62 62 0 35 28 62 62 62 34 0 62-27 62-62z m545 374v-750c0-42-33-77-75-77h-3v-20c0-15-12-26-27-26h-76c-15 0-27 11-27 26v20h-492v-20c0-15-13-26-28-26h-76c-15 0-28 11-28 26v21c-38 3-70 36-70 75v751c0 42 35 75 76 75h751c42 0 75-33 75-75z m-78-68c0 39-32 71-71 71h-611c-39 0-72-32-72-71v-608c0-40 33-71 72-71h611c39 0 71 31 71 71v608z m-54 0v-608c0-10-8-17-17-17h-611c-9 0-18 7-18 17v608c0 9 9 17 18 17h611c9 0 17-8 17-17z m-359-306c0 64-52 117-116 117-64 0-116-53-116-117 0-64 52-116 116-116 64 0 116 52 116 116z m125-90c0 15-12 27-27 27h-13c-15 0-27-12-27-27 0-15 12-27 27-27h13c15 0 27 12 27 27z m0 88c0 15-12 27-27 27h-13c-15 0-27-12-27-27 0-15 12-27 27-27h13c15 0 27 12 27 27z m0 90c0 15-12 27-27 27h-13c-15 0-27-12-27-27 0-15 12-27 27-27h13c15 0 27 12 27 27z m92-178c0 15-12 27-27 27h-13c-15 0-27-12-27-27 0-15 12-27 27-27h13c15 0 27 12 27 27z m0 88c0 15-12 27-27 27h-13c-15 0-27-12-27-27 0-15 12-27 27-27h13c15 0 27 12 27 27z m0 90c0 15-12 27-27 27h-13c-15 0-27-12-27-27 0-15 12-27 27-27h13c15 0 27 12 27 27z m92-178c0 15-12 27-27 27h-13c-15 0-27-12-27-27 0-15 12-27 27-27h13c15 0 27 12 27 27z m0 88c0 15-12 27-27 27h-13c-15 0-27-12-27-27 0-15 12-27 27-27h13c15 0 27 12 27 27z m0 90c0 15-12 27-27 27h-13c-15 0-27-12-27-27 0-15 12-27 27-27h13c15 0 27 12 27 27z" horiz-adv-x="1000" />

<glyph glyph-name="minibar" unicode="&#xe82c;" d="M680 804c-187 0-373 0-560 0-67 0-92-25-92-93 0-239 0-479 0-718 0-72 24-96 98-96 186 0 373 0 559 0 65 0 87 23 88 88 0 122 0 243 0 365h0 0c0 120 0 241 0 361-1 68-26 93-93 93z m30-791c0-29-10-37-38-37-181 1-362 1-543 0-32-1-38 12-38 41 1 113 0 227 0 341h0c0 114 1 227-1 340 0 35 12 43 45 43 178-1 357-1 535 0 30 0 40-9 40-39-1-230-1-460 0-689z m257 523c-2 99 20 102-97 109 0 45-1 86 0 128 1 22-6 32-30 32-23 0-34-7-34-32 1-282 1-563 0-844 0-24 8-33 33-33 26 0 31 12 31 35-1 58 0 116 0 174 0 81 0 162 0 246 14 0 25 0 36 0 57 0 62 5 61 64 0 40 1 81 0 121z m-63-116c0-17-34-29-34 18 0 44 0 89 0 133 1 5 0 10 12 11 24 1 20-18 21-27 2-44 1-89 1-135z m-228-227c-2-49-1-98-1-146 1-26-10-37-36-37-148 3-122-21-125 119 0 27 2 54 0 81-2 32 5 59 33 78 6 4 14 12 14 18 1 54 0 108-1 168h70c-2-56-3-108-4-161 0-7 5-17 11-21 39-24 40-60 39-99z m-390-132c2-36-16-51-51-51-109 0-114-9-110 109 1 25-2 51 0 76 3 25 10 49 15 73h140c2-70 4-138 6-207z m195-1c2-34-16-50-48-50-107 0-118-11-113 106 1 26-2 51 0 77 3 24 9 49 14 75h128c32-68 14-139 19-208z m198 466c0-9-5-12-10-12h-537c-7 0-9 0-9 8 0 10 7 22 24 21 168-9 337 2 505 1 9 0 27-7 27-18z m-554 117c0 36 29 63 64 63 36 0 65-29 64-64 0-36-29-64-64-64-36 0-64 29-64 65z m195-2c-1 35 27 64 62 65 36 1 65-26 66-62 1-36-27-65-62-66-36-1-65 27-66 63z m195 2c0 36 28 64 64 63 35 0 64-29 64-64-1-36-29-64-65-64-36 1-64 29-63 65z" horiz-adv-x="1000" />

<glyph glyph-name="satelitetv" unicode="&#xe82d;" d="M457 176l5 82c85-49 196-37 269 35l-11 11c-1 0-2 0-2 0l-51 198c9 6 16 16 16 28 0 18-14 32-32 32-12 0-22-6-28-16l-197 50c0 0 0 1 0 2l-9 9c-86-85-87-223-4-310l-64-121h108z m186 324c3-1 5-2 8-2l51-198c-59-11-119 26-177 82l118 118z m-221 80l197-50c0-3 0-5 1-8l-118-118c-55 58-91 117-80 176z m-394 118v-596h940v596h-940z m892-548h-844v500h844v-500z m-124-124c0-13-11-24-24-24h-551c-13 0-24 11-24 24 0 13 11 24 24 24h551c13 0 24-11 24-24z" horiz-adv-x="1000" />

<glyph glyph-name="livingarea" unicode="&#xe82e;" d="M134 369v-57l134 21 43 1 189-15v138c0 75-62 135-137 135h-141c-75 0-136-60-136-135v-32c26-4 48-28 48-56z m205 141c6 0 11-5 11-11 0-6-5-11-11-11-6 0-11 5-11 11 0 6 5 11 11 11z m0-99c6 0 11-5 11-11 0-6-5-11-11-11-6 0-11 5-11 11 0 6 5 11 11 11z m-100 99c6 0 11-5 11-11 0-6-4-11-11-11-6 0-11 5-11 11 0 6 5 11 11 11z m0-99c6 0 11-5 11-11 0-6-4-11-11-11-6 0-11 5-11 11 0 6 5 11 11 11z m-121-263h43l-19-38c-1-1-1-1-2-1-2 0-3 4-5 7l-17 32z m625 190l121-26v57c0 31 28 57 61 57 1 0 1 0 3 0v31c0 75-61 135-136 135h-141c-75 0-137-60-137-135v-137l187 18 42 0z m23 172c6 0 11-5 11-11 0-6-5-11-11-11-6 0-11 5-11 11 0 6 5 11 11 11z m0-99c6 0 11-5 11-11 0-6-5-11-11-11-6 0-11 5-11 11 0 6 5 11 11 11z m-100-22c-6 0-11 5-11 11 0 6 5 11 11 11 6 0 11-5 11-11 0-6-4-11-11-11z m0 99c-6 0-11 5-11 11 0 6 5 11 11 11 6 0 11-5 11-11 0-6-4-11-11-11z m192-340h42l-19-37c-1-2-1-2-2-2-2 0-3 4-5 7l-16 32z m110 221c0-26-10-38-33-41l-7-1v-69c-4 0-7 2-11 2h-830c-6 0-11-2-17-4v71l-7 1c-24 3-35 16-35 41 0 23 27 41 49 41 23 0 41-18 41-41v-76l152 25 40 1 196-16 196 19 40 0 138-29v76c0 22 21 41 45 41 23 0 43-19 43-41z m-24-152v-24c0-11-4-29-27-29h-830c-18 0-33 15-33 33v14c0 18 15 33 33 33h830c18 0 27-9 27-27z" horiz-adv-x="1000" />

<glyph glyph-name="inroomdining" unicode="&#xe82f;" d="M968 445v-440c0-27-21-48-47-48-26 0-47 21-47 48v419l-386 219-366-219v-419c0-27-21-48-47-48-26 0-47 21-47 48v440c0 8 2 15 5 21 3 11 10 21 21 27l409 245c15 9 33 9 48 1l430-245c12-7 20-18 23-31 3-5 4-12 4-18z m-191-287c10-18 18-33 18-33s0-19-14-35c-9-10-23-17-38-17-14 0-25 5-34 13-16 14-18 14-34 0-9-8-21-13-34-13-13 0-25 5-34 13-15 14-18 14-33 0-9-8-21-13-34-13-13 0-25 5-34 13-16 14-18 14-34 0-9-8-21-13-34-13-13 0-25 5-34 13-15 14-18 14-33 0-9-8-21-13-34-13-13 0-25 5-34 13-16 14-18 14-34 0-9-8-21-13-34-13-15 0-29 7-38 17-14 16-13 35-13 35s11 13 24 29l8 11c13 16 40 29 61 29h49c-21 0-45 11-54 24-9 14 1 24 21 24h74c5 24 16 59 24 72 3 6 9 8 14 6-1 1-2 1-2 1 66 2 71-79 71-79h76c21 0 31-10 24-24-8-14-31-24-52-24h90c-21 0-23 8-5 18l6 3c6 4 13 6 21 7v70h-1c-70 2-29 176-29 176h80c0 0 42-174-28-176h-2v-70c8-1 17-3 24-7l3-2c18-11 15-19-5-19h45c20 0 45-15 55-33l1-3z m-325 84c-4 22-10 36-18 48-7 9-13 14-17 16 12-21 18-48 22-64h13z" horiz-adv-x="1000" />

<glyph glyph-name="outdoordining" unicode="&#xe830;" d="M498 828c-248 0-450-201-450-450v-26h424v-194h-151c-15 0-27-12-27-27 0-15 12-27 27-27h151v-203c0-15 12-27 27-27 15 0 27 12 27 27v203h148c15 0 27 12 27 27 0 15-12 27-27 27h-148v194h422v26c0 249-202 450-450 450z m13-422c-3 0-7 3-12 3-4 0-8-3-12-3h-385c14 206 186 370 396 370 209 0 381-164 395-370h-382z m-395-376h210v-129c0-15-12-27-27-27-15 0-27 12-27 27v75h-156v-75c0-15-12-27-27-27s-27 12-27 27v255c0 15 12 27 27 27s27-12 27-27v-126z m818 126v-255c0-15-12-27-27-27-15 0-27 12-27 27v75h-156v-75c0-15-12-27-27-27-15 0-27 12-27 27v129h210v126c0 15 12 27 27 27 15 0 27-12 27-27z" horiz-adv-x="1000" />

<glyph glyph-name="ipoddock" unicode="&#xe831;" d="M959 154c-15 41-43 70-89 72-64 3-129 1-194 1-11-36-15-39-52-39h-253c-33 0-40 6-49 40h-14c-62 0-124 0-185-1-5 0-9-1-13-2-55-15-89-71-81-137 5-49 43-104 108-102 64 1 129 0 193 0 175 0 350 0 525 0 39 0 68 13 89 45 26 38 30 80 15 123z m-506-52c-14 0-25 11-25 25 0 14 11 26 25 26 14 0 25-12 25-26 0-14-11-25-25-25z m96 0c-14 0-25 11-25 25 0 14 11 26 25 26 14 0 25-12 25-26 0-14-11-25-25-25z m-154 126c68 0 137 0 205 0 27 1 35 9 35 36 0 69 0 139 0 209 0 71 0 141 0 211 0 25-8 33-33 33-69 0-138 0-207 0-27 0-35-7-35-34 0-140 0-279 0-419 0-27 9-36 35-36z m102 60c-54 1-98 45-98 99 1 55 44 98 99 98 54 0 98-44 98-99 0-54-45-98-99-98z m-113 373c0 22 11 32 32 32 55 1 109 1 163 0 22 0 32-11 33-32 1-28 1-55 0-83-1-23-11-33-34-33-27 0-54 0-81 0-26 0-53 0-80 0-22 0-32 9-33 31-1 28-1 57 0 85z m143-274c0-18-13-30-31-30-16 1-28 13-28 30 0 17 13 29 31 29 16 0 28-13 28-29z" horiz-adv-x="1000" />

<glyph glyph-name="entertainmentsystem" unicode="&#xe832;" d="M166 340c-45 0-82-37-82-83 0-45 37-83 82-83 46 0 83 38 83 83 0 46-37 83-83 83z m0-121c-21 0-38 17-38 38 0 22 17 39 38 39s39-17 39-39c0-21-17-38-39-38z m108 369h-216c-17 0-30-13-30-30v-416c0-17 13-32 30-32h216c17 0 30 15 30 32v416c0 17-13 30-30 30z m-108-76c22 0 39-18 39-39 0-21-17-39-39-39s-38 18-38 39c0 21 17 39 38 39z m0-354c-54 0-99 44-99 99 0 55 45 100 99 100 55 0 100-45 100-100 0-55-45-99-100-99z m170 76h324v-46c0-17-14-30-31-30h-262c-18 0-31 13-31 30v46z m293 154h-262c-18 0-31-14-31-31v-107h324v107c0 17-14 31-31 31z m-109-108h-154v78h154v-78z m62 0c-21 0-38 18-38 39 0 21 17 38 38 38s39-17 39-38c0-21-17-39-39-39z m247 60c-46 0-83-37-83-83 0-45 37-83 83-83 46 0 83 38 83 83 0 46-37 83-83 83z m0-121c-21 0-39 17-39 38 0 22 18 39 39 39 21 0 39-17 39-39 0-21-18-38-39-38z m108 369h-216c-17 0-31-13-31-30v-416c0-17 14-32 31-32h216c17 0 31 15 31 32v416c0 17-14 30-31 30z m-108-76c21 0 39-18 39-39 0-21-18-39-39-39-21 0-39 18-39 39 0 21 18 39 39 39z m0-354c-55 0-99 45-99 99 0 55 44 100 99 100 55 0 99-45 99-100 0-55-44-99-99-99z m-463-16h62v-32h-62v32z m202 0h60v-32h-60v32z" horiz-adv-x="1000" />

<glyph glyph-name="daybed" unicode="&#xe833;" d="M200 309l-61 61c-28 28-28 74 0 102l61 61c14 13 32 21 51 21 20 0 38-8 51-21l27-27c3 2 6 4 9 5l81 30c8 3 17 5 25 5 30 0 57-19 68-47l30-81c7-18 6-37-1-55-8-18-23-31-41-38l-61-23h271l-39 12c-18 6-33 19-41 36-9 18-11 37-5 55l27 82c10 30 38 50 69 50 8 0 15-1 23-4l82-26c18-6 33-19 42-36 8-18 10-37 4-56l-27-81c-4-13-12-24-21-32h82v265c0 16-13 29-29 29h-758c-17 0-31-13-31-29v-265h120c-3 2-5 4-8 7z m718-47h-840c-28 0-50-22-50-49v-18c0-23 15-42 35-48-1-4-2-7-2-11 0-18 14-32 32-32h51c18 0 33 14 33 32 0 3-1 6-1 8h644c-1-2-1-5-1-8 0-18 14-32 32-32h51c18 0 33 14 33 32 0 4-1 8-2 11 20 6 35 25 35 48v18c0 27-23 49-50 49z m-105 208l-82 27c-3 1-6 1-10 1-14 0-27-9-31-23l-27-82c-6-17 3-36 21-41l82-27c3-2 7-2 10-2 15 0 27 9 32 23l27 82c5 17-4 36-22 42z m-538 35c-7 6-15 10-24 10-9 0-17-4-23-10l-61-61c-13-13-13-34 0-47l61-61c6-6 14-9 23-9 9 0 17 3 24 9l38 38-17 44c-8 21-5 43 5 61l-26 26z m119-176c4 0 8 1 12 2l81 31c8 3 15 9 18 17 4 8 4 17 1 25l-30 81c-5 13-18 22-31 22-4 0-8-1-12-2l-81-31c-17-6-26-25-19-43l30-80c5-13 17-22 31-22z m-66 5l-26-25c-2-3-5-5-7-7h60c-12 8-21 19-27 32z" horiz-adv-x="1000" />

<glyph glyph-name="workdesk" unicode="&#xe834;" d="M506 374h-100v-416h-338v416h-40v44h478v-44z m248-162h0c62-2 98 15 103 59l26 203c5 37-29 66-63 77l0 0c0 0-12 4-23 5-12 1-23 0-23 0-26-3-52-20-52-20-49-31-124-37-224-20-25 5-50-10-55-32-5-23 12-44 37-49 42-7 81-11 116-11 33 0 63 3 90 9l0-2-16-130c-85-3-138-18-159-46-28-39-74-193-87-240-7-25 10-50 37-56 4-1 8-1 13-1 22 0 43 14 49 34 24 84 56 171 71 198 12 24 94 24 160 22z m30 349c57 0 104 42 104 93 0 51-46 92-104 92-57 0-104-41-104-92 0-51 47-93 104-93z m170-260l14 160c0 1-1 1-1 2-1 1-2 1-3 1h-57c-2 0-3-1-4-3l-12-160c-2-49-18-109-111-109-1 0-102 0-102 0-1 0-2 0-3-1-1-1-1-1-1-2v-50c0-2 1-3 3-3l93 0v-114h-29c-38 0-70-30-70-65 0-2 2-3 4-3h37c2 0 3 2 3 4 0 13 12 24 27 24h121c14 0 26-11 26-24 0-2 1-4 4-4h36c2 0 4 1 4 3 0 35-32 65-70 65h-29v120c90 2 112 83 120 159z m-743 134c1-1 2-1 3-1h203c1 0 3 0 3 2v29c0 1-2 3-3 3h-176l-59 194c0 1-2 2-4 1l-31-8c-1 0-2 0-2-1 0 0 0-1 0-2l66-217z" horiz-adv-x="1000" />

<glyph glyph-name="instantoffice" unicode="&#xe835;" d="M100 390v-307c0-30 7-59 19-81h-13c-43 0-78 35-78 78v313c0 43 35 79 78 79h13c-12-24-19-52-19-82z m868 3v-313c0-43-35-78-79-78h-571c13 22 20 51 20 81v307c0 30-7 58-20 82h28v156c0 59 46 108 102 108h292c56 0 102-49 102-108v-156h47c44 0 79-36 79-79z m-520 1h292c30 0 54 28 54 61v172c0 34-24 61-54 61h-292c-30 0-54-27-54-61v-172c0-33 24-61 54-61z m397-303c0 18-15 33-34 33-19 0-34-15-34-33 0-19 16-34 34-34 19 0 34 15 34 34z m7 213h-434v-128h434v128z m-633 203c-50 0-91-52-91-117v-307c0-65 41-118 91-118 50 0 91 53 91 118v307c0 65-41 117-91 117z m227 103h294c10 0 18 8 18 18 0 10-8 18-18 18h-294c-10 0-19-8-19-18 0-10 9-18 19-18z m0-84h294c10 0 18 8 18 18 0 10-8 18-18 18h-294c-10 0-19-8-19-18 0-10 9-18 19-18z m312-67c0 10-8 19-18 19h-294c-10 0-19-9-19-19 0-10 9-19 19-19h294c10 0 18 9 18 19z" horiz-adv-x="1000" />

<glyph glyph-name="freewifi" unicode="&#xe836;" d="M118 325c12-42 52-72 95-72 94 0 189 0 283 0 94 0 188 0 282 0 27 0 51 10 70 29 19 19 29 42 30 68 0 45 0 90 0 135 0 3 0 6-1 9-5 50-48 88-99 88h-29c-178 0-356 0-534 0-28 0-51-9-71-28-19-19-30-42-30-68 0-46 0-91 0-136 0-9 2-17 4-25z m354-41c1 1 3 3 4 5 19 19 31 43 38 69 1 3 2 7 2 10 0 37-1 74 0 110 1 29 15 52 40 68 14 9 29 13 46 13 54 0 109 0 164 0 26 0 48-10 66-30 12-13 18-29 20-47 0-4 0-8 0-12 0-35 1-70 0-106 0-35-16-61-47-77-11-6-24-9-37-9h-299-1c0 0 1 3 4 6z m-68 221c0 4 4 7 8 7h31c4 0 7-3 7-7v-22c0-4-3-7-7-7h-31c-4 0-8 3-8 7v22z m0-50c0 4 4 7 8 7h31c4 0 7-3 7-7v-108c0-4-3-7-7-7h-31c-4 0-8 3-8 7v108z m-215 53h35c4 0 8-4 9-8 4-26 8-52 12-78 0-4 2-5 3 0 0 2 1 4 1 7 5 25 10 51 15 76 1 2 1 3 3 3 12 0 24 0 36 0 0 0 1 0 1 0 0 0 1-4 2-8 6-26 12-52 18-79 0-4 2-4 2 0 1 4 1 7 2 11 4 25 7 49 11 74 0 1 1 2 1 2 14 0 28 0 42 0 4 0 7-4 6-8-1-3-2-7-3-10-12-49-24-98-36-147-2-5-1-4-5-4-12 0-24 0-36 0-2 0-3 1-3 3-7 32-13 63-19 95 0 0 0 0 0 0-1 1-1-2-2-5 0-2-1-4-1-6-6-28-11-56-17-84 0-2-1-3-4-3-12 0-25 0-37 0-2 0-3 1-3 3-13 54-27 109-40 163 0 1 0 1 0 2-1 0 2 1 7 1z m409-292v-91c0-4-4-8-8-8-2 0-5 0-7 0-5-1-8 1-11 6-12 20-25 41-38 61 0 0-1 1-1 1-1 1-1-2-1-7v-53c0-4-3-7-8-7h-4c-4 0-8 3-8 7v91c0 5 4 8 8 8 4 0 8 0 12 0 1 0 2-1 2-2 14-21 27-43 41-64 0-1 1-2 1-2 1-1 2 2 2 6v54c0 4 3 8 7 8h4c5 0 9-4 9-8z m-134 6c-10 4-20 5-31 3-16-2-28-10-35-24-4-7-6-14-7-22-1-4 0-11 0-14 0-3 0-5 1-7 2-17 10-30 26-38 10-4 21-5 32-4 20 1 36 14 42 32 4 14 5 29 0 43-4 15-14 26-28 31z m5-71c-5-12-15-18-28-17-11 0-21 8-25 19-4 11-4 23-1 35 4 12 15 20 28 20 14-1 24-8 28-22 0-2 1-4 1-6 0-3 0-6 1-9-1-7-1-14-4-20z m233-23v-3c0-4-4-7-8-7h-66c-4 0-8 3-8 7v91c0 4 4 8 8 8h64c4 0 8-4 8-8v-2c0-5-4-8-8-8h-42c-4 0-8-4-8-8v-8c0-4 4-8 8-8h38c4 0 8-3 8-8v-2c0-5-4-8-8-8h-38c-4 0-8-3-8-8v-13c0-4 4-7 8-7h44c4 0 8-4 8-8z m-320 0v-3c0-4-4-7-9-7h-71c-5 0-8 2-8 4 0 1 0 2 0 4-1 8 2 13 6 19 17 19 32 39 48 59 1 0 1 0 1 1 1 0-3 1-7 1h-34c-4 0-8 3-8 8v2c0 4 4 8 8 8h63c5 0 8-2 8-5 0-2 0-4 0-6 1-4-1-7-4-10-18-22-35-44-53-66-1 0-1 0-1 0 0-1 3-1 7-1h45c5 0 9-4 9-8z m190 218v154c0 4 3 8 8 8h132c4 0 8-4 8-8v-26c0-5-4-8-8-8h-82c-4 0-8-4-8-8v-20c0-5 4-8 8-8h69c5 0 8-4 8-8 1-8 1-17 1-26 0-4-3-8-8-8h-71c-4 0-7-2-7-7v-35c0-4-4-8-9-8h-33c-5 0-8 4-8 8z m170 1v108c0 4 4 7 8 7h33c4 0 7-3 7-7v-108c0-4-3-7-7-7h-33c-4 0-8 3-8 7z m0 135v23c0 4 4 7 9 7h32c4 0 7-3 7-7v-23c0-4-3-8-7-8h-32c-5 0-9 4-9 8z m183 192h-855c-23 0-42-20-42-43v-560c0-24 19-43 42-43h855c23 0 43 19 43 43v560c0 23-20 43-43 43z m-9-594h-836v542h836v-542z" horiz-adv-x="1000" />

<glyph glyph-name="bathrobe" unicode="&#xe837;" d="M248 402v402c0 12 11 22 24 22h70c13 0 23 0 23 0s6-8 14-17l173-213c7-10 14-28 14-41v-153c0-12-10-22-23-22h-271c-13 0-24 10-24 22z m475-46h-452c-12 0-23-10-23-22v-51c0-13 11-23 23-23h452c13 0 23 10 23 23v51c0 12-10 22-23 22z m-180-118h-271c-13 0-24-10-24-22v-318c0-13 11-22 24-22h271c12 0 23 9 23 22v318c0 12-11 22-23 22z m-53 512c8-10 21-10 29 0l47 59c8 9 4 17-8 17h-107c-12 0-16-8-8-17l47-59z m-279 52l-156-450c-4-12 2-24 14-28l127-33c13-4 22 4 22 16v494c0 12-3 13-7 1z m729-450l-156 450c-4 12-8 11-8-1v-494c0-12 10-20 22-16l128 33c12 4 19 16 14 28z m-217-114h-85c-13 0-22-10-22-22v-318c0-13 9-22 22-22h85c13 0 23 9 23 22v318c0 12-10 22-23 22z m0 588h-56c-13 0-23 0-23 0s-7-8-15-17l-79-98c-7-10-7-26 0-36l45-55c8-10 16-20 18-23 1-2 3-20 3-33v-162c0-12 9-22 22-22h85c13 0 23 10 23 22v402c0 12-10 22-23 22z" horiz-adv-x="1000" />

<glyph glyph-name="slippers" unicode="&#xe838;" d="M407 670c-28 112-139 179-240 146-101-33-150-152-106-259l132-368c33-82 118-125 195-100 77 25 120 110 99 196l-80 385z m-1-277c-1-10-9-18-19-18-11 0-18 9-18 19 2 59-5 222-66 262-20 13-44 12-75-3-38-18-60-45-68-80-27-113 98-275 99-277 6-7 5-19-3-25-3-3-7-4-11-4-6 0-11 2-15 7-5 7-136 177-106 307 9 42 34 74 74 97-1 1-2 3-2 4l-15 42c-4 10 1 20 11 24 9 3 20-1 23-11l15-43c0 0 0 0 1 0 34 12 65 10 92-7 89-59 84-270 83-294z m422 219c-101 33-211-34-240-147l-79-385c-22-85 21-171 98-195 77-26 162 18 195 99l133 369c43 106-6 226-107 259z m-63-543c-4-4-9-7-14-7-4 0-8 2-12 4-8 7-9 18-3 26 1 2 126 164 100 276-8 36-31 62-69 80-30 15-55 16-74 3-62-40-69-202-66-262 0-10-8-18-18-19-10 0-19 8-19 18-1 24-7 236 83 294 26 18 57 20 92 7 0 1 0 1 0 1l15 42c4 10 14 15 24 11 9-3 14-14 11-23l-16-43c0-1-1-2-2-3 40-23 65-56 74-98 31-129-100-299-106-307z" horiz-adv-x="1000" />

<glyph glyph-name="hairdryer" unicode="&#xe839;" d="M965 658c-5-9-17-12-26-6-5 3-32 15-55-25-42-71-140-36-145-35-5 2-9 6-11 11-1 4-1 9 0 13 4 10 15 15 24 11 1 0 74-25 100 19 35 59 85 51 107 38 8-5 11-17 6-26z m-200 67c8 45 38 42 44 41 10-1 19 6 21 16 2 10-5 20-15 21-24 5-75-4-87-71-10-51-87-52-87-52-11 0-19-8-19-19 0-4 2-9 5-12 3-4 8-6 14-6 4-1 108 0 124 82z m125-221c-5-3-31-18-59 18-50 65-143 18-147 16-6-2-9-7-10-12-1-4-1-9 1-13 5-9 16-13 26-8 0 0 69 35 101-6 42-54 90-40 110-24 9 6 10 18 4 26-6 8-18 10-26 3z m-278 18c5-20-5-46-23-57l-272-176c-10-10-22-20-35-27 0-26 1-60 11-94 3 3 7 6 10 7 7 2 14 0 17-9 4-11 22-35 37-54 10-12 19-32 18-48 42-24 65-51 70-80 5-35-18-59-20-60 0 0-17-20-46-25-6-1-13-1-20-1-38 3-74 32-108 87-40 62-65 120-87 170-18 42-34 78-53 107-41 24-72 64-81 115-17 92 44 180 136 196l381 52c21 3 42-11 47-31l18-72z m-312-85c-10 56-64 93-119 83-56-11-93-64-83-120 10-56 64-93 120-82 55 10 92 64 82 119z m-13-6c6-48-29-91-77-97-48-5-91 29-97 77-5 48 29 92 77 97 48 6 92-29 97-77z m-17-2c-5 39-39 66-78 62-38-5-66-39-61-78 4-38 39-66 77-61 38 4 66 39 62 77z" horiz-adv-x="1000" />

<glyph glyph-name="beachtowel" unicode="&#xe83a;" d="M349 153c-19-31-26-56-30-80-24 39-66 65-115 65-62 0-113-51-113-113 0-53 42-95 95-96 21 0 43 11 58 28 13 16 17 34 14 52-3 13-16 22-29 19-13-3-22-16-19-29 0-3-1-7-4-10-5-7-14-11-19-11h0c-26 0-47 21-47 46 0 36 29 65 64 65 48 0 87-39 87-87 0-62-52-114-114-114-42 0-82 17-111 47-26 28-40 64-38 101 2 41 4 76 65 144 22 24 60 64 102 105 8-27 23-51 43-73 30-31 69-51 111-59z m35 46c63 0 114 51 114 114 0 47-38 86-86 86-35 0-64-29-64-64 0-26 20-46 47-46 5-1 14 3 19 10 3 4 4 7 4 11-3 13 5 26 19 28 13 3 26-5 28-18 4-19-1-37-13-52-15-18-37-28-58-28-53 1-95 43-95 95 0 31 13 59 33 79 98 100 396 397 396 397-13 3-26 5-40 5h0c-40 0-77-16-106-44 0 0 0 0 0 0-2-2-215-208-281-281-62-68-63-103-65-144-2-37 12-73 38-101 28-30 69-47 110-47z m164 114v0l245 245c0 1 1 2 2 2 58 59 58 154 0 212-7 6-13 12-20 17l-342-342c65-10 115-66 115-134z m376 147c-30 30-68 44-106 44-4 0-7 0-11 0l-307-307c-2-2-4-4-7-5-23-21-53-36-86-40-39-52-40-82-42-118-2-37 12-72 38-100 29-30 69-47 111-47 63 0 114 51 114 114 0 48-39 86-87 86-35 0-64-28-64-64 0-25 21-46 47-46 5-1 14 3 19 10 4 4 5 7 4 11-3 13 6 26 19 28 13 3 26-5 29-19 4-18-1-36-14-51-14-18-37-29-58-28-53 1-94 42-94 95 0 62 50 113 112 113 75 0 135-61 135-135v0l245 245c1 1 2 2 3 3 28 28 44 65 44 105 0 40-16 78-44 106z" horiz-adv-x="1000" />

<glyph glyph-name="showers" unicode="&#xe83b;" d="M520 668c-65-10-115-66-115-134 0-11 10-20 21-20h231 0c11 0 21 9 21 20 0 1-1 2-1 4-1 66-51 121-116 130-8 85-79 151-165 151-91 0-166-74-166-166v-521c0-11 10-20 21-20 11 0 21 9 21 20v521c0 69 56 125 124 125 64 0 117-48 124-110z m114-114h-186c10 44 48 75 93 75 46 0 84-31 93-75z m-91-77c11 0 21-10 21-21v-98c0-11-10-20-21-20-11 0-21 9-21 20v98c0 12 10 21 21 21z m-67 0c11 0 20-10 20-21v-98c0-11-9-20-20-20s-20 9-20 20v98c0 12 9 21 20 21z m134 0c11 0 20-10 20-21v-98c0-11-9-20-20-20s-20 9-20 20v98c0 12 9 21 20 21z m43-193c-31 17-66 26-103 26-37 0-71-9-101-25-15-8-28-17-40-28-22-19-40-43-53-69-7-14-12-28-15-44-4-15-6-32-6-49 0-37 10-72 26-103 37-66 108-111 189-111 12 0 24 1 35 3 90 15 161 86 176 176 2 11 4 23 4 35 0 82-46 152-112 189z m64-215c-11-72-69-130-141-141-9-1-17-2-26-2-94 0-170 76-170 169 0 10 1 19 3 28 2 15 7 30 13 44 7 14 15 27 25 38 11 13 24 25 38 34 27 16 57 26 91 26 93 0 169-76 169-169 0-9-1-18-2-27z m-172-38c-4-5-7-9-10-15h103v-48h-182c2 20 8 36 18 52 10 16 29 38 58 65 23 22 38 36 43 44 7 11 11 21 11 32 0 11-3 20-10 26-6 6-14 10-25 10-11 0-20-4-26-10-6-7-10-17-11-32l-51 5c3 28 12 49 28 61 17 12 37 19 61 19 27 0 47-8 63-22 15-14 22-32 22-53 0-12-2-24-6-35-5-11-11-22-21-34-6-8-17-20-34-35-16-15-26-25-31-30z" horiz-adv-x="1000" />

<glyph glyph-name="privatepool" unicode="&#xe83c;" d="M961 411c-8-15-25-24-41-24-8 0-16 2-23 6l-409 232-388-231c-23-14-52-6-66 16-13 23-6 52 17 65l411 246c15 9 33 9 48 1l433-246c23-13 31-42 18-65z m-517-99h108c-1 26-4 46-7 56-7-6-11-25-11-34-1-9-8-16-18-16-9 1-16 9-15 18 1 25 13 68 49 68 7 0 12-3 17-7 11-12 17-49 19-94 2-2 2-5 2-7 0-2 0-4-1-6 2-43 2-91 1-129-9-1-17 2-24 6-3 1-6 3-10 5 1 9 1 19 1 29h-108c0-12-1-24-1-34-10-6-22-8-33-5 0 16 1 33 1 49-1 2-1 3-1 5 0 2 0 4 1 6 0 67-4 126-10 147-7-7-11-26-12-35 0-9-8-16-17-15-9 0-16 8-16 17 2 25 14 68 50 68 6 0 12-2 16-7 10-11 16-45 19-85z m2-34c0-14 1-30 1-46h108c0 16 0 32-1 46h-108z m-151-125c-11-6-23-9-36-9-13 0-23-11-23-24 0-13 10-23 23-23 21 0 42 5 59 15 17 10 30 10 46 0 36-20 82-20 118 0 16 10 30 10 46 0 37-21 85-20 121 2 17 10 28 10 45 0 19-11 40-17 62-17 13 0 24 10 24 23 0 13-11 24-24 24s-26 4-37 11c-33 19-63 19-95 0-22-14-50-14-72-1-31 17-63 17-94 0-21-13-49-13-70 0-31 17-62 17-93-1z m556-38c-13 0-23-11-23-24 0-39-32-71-72-71-13 0-26 3-37 10-32 20-62 20-95 0-21-13-50-14-72-1-31 18-62 18-93 0-22-12-50-12-71 0-31 18-62 18-93 0-11-6-23-9-36-9-39 0-71 32-71 71 0 13-10 24-24 24-13 0-23-11-23-24 0-66 53-119 118-119 21 0 42 5 59 16 17 9 30 9 46 0 36-21 83-21 118 0 17 9 30 9 46 0 37-21 85-21 121 2 17 10 28 10 45 0 19-12 40-18 62-18 66 0 119 54 119 119 0 13-10 24-24 24z" horiz-adv-x="1000" />

<glyph glyph-name="jacuzzi" unicode="&#xe83d;" d="M183 480c-41 48-16 88 3 102 8 6 20 4 26-3 6-7 5-18-3-23-4-4-25-22 3-55 50-57-16-129-19-132-3-3-8-5-13-5-5 0-9 1-12 4-8 6-9 16-2 23 0 1 48 53 17 89z m142-22c-7-7-6-17 2-23 3-3 7-4 12-4 5 0 10 2 13 6 3 3 69 74 19 132-27 32-7 50-3 54 8 6 9 16 3 23-6 7-18 9-25 3-19-14-45-53-3-101 30-36-18-89-18-90z m140 0c-6-7-5-17 2-23 4-3 8-4 12-4 5 0 10 2 14 6 3 3 68 74 19 132-28 32-7 50-3 54 8 6 9 16 3 23-6 7-18 9-26 3-19-14-44-53-3-101 31-36-17-89-18-90z m372-76c55 0 100 41 100 92 0 51-45 93-100 93-55 0-100-42-100-93 0-51 45-92 100-92z m78-91c0-6-1-12-3-18-1-5-3-10-4-15 12-5 20-9 23-13 0-1-1-2-2-2 0-1-1-2-2-2 0-1-2-2-3-3-1 0-2-1-4-2-1-1-3-1-5-2-1-1-3-2-5-2 0 0 0-1 0-1-4-1-9-2-14-4-4-2-9-4-13-5 8 16 16 36 22 59 12 45-28 85-75 88-9 0-20-1-31-3-18 12-54 29-122 40 13 27 21 63-7 95-27 32-7 51-2 54 7 6 9 17 2 24-6 7-17 8-25 3-19-14-44-54-3-102 19-22 8-49-3-68-36 4-79 6-131 8h-1c-20 0-36-15-36-34 0-19 16-34 36-34 102-1 165-11 203-22-9-6-17-13-24-19-10-11-21-23-33-35-82-12-132 4-133 4-19 6-40-3-47-20-7-17 3-37 22-43 3-1 36-12 91-12-7-8-12-14-16-19-13 0-25 0-33 0-2 1-4 1-5 1-12 0-23 0-35 0-16 0-33 0-49 0-6 0-11 0-17 1-10 0-20 0-29 0-8 1-16 1-25 1-6 1-12 1-18 1-11 1-21 1-31 2-3 0-7 1-10 1-156 11-244 36-254 51 13 22 166 58 434 58 53 0 102-1 146-4l18 20c-36 7-89 13-165 13-7 0-14 2-21 5-93-2-448-11-448-92v-95c0-56 48-101 109-101h722c60 0 109 45 109 101v95c0 20-21 35-53 47z" horiz-adv-x="1000" />

<glyph glyph-name="coffeemachine" unicode="&#xe83e;" d="M796 551v182c50-3 50-50 50-91 0-42 0-88-50-91z m-282-251c-1 17-1 34-1 50h365c0-118 0-289-182-289-81 0-126 34-151 81-76 3-110 38-110 81 0 36 24 67 79 77z m274-180c34 51 47 111 47 172 0 25-39 25-39 0 0-55-11-106-42-152-15-21 20-41 34-20z m-306 102c0-23 5-38 48-44-8 27-12 57-15 87-29-8-34-23-33-43z m442-178h-558c-20 0-36 6-48 15v-169h606c27 0 42 29 42 55v39c0 29-17 60-42 60z m-558 374c-38 0-64-24-64-60v-468h-225c-28 0-47 29-47 55v818c0 27 19 47 47 47h521c22 0 38-13 43-34 0-4 1-8 1-13v-289c0-27-17-56-45-56h-231z m-98 216l-13 2c-2 39-34 70-73 70-41 0-74-33-74-73 0-41 33-74 74-74 30 0 55 18 67 44l13-3c1 0 2 0 3 0 8 0 15 6 17 14 1 10-5 18-14 20z m425-131l8-17h39l5 17 6 17h27v238h-118v-238h25l8-17z" horiz-adv-x="1000" />

<glyph glyph-name="roomservice" unicode="&#xe83f;" d="M790 482h-419c0 114 93 208 208 208h-9v23c-10 4-18 14-18 26 0 16 13 28 28 28 16 0 28-12 28-28 0-12-6-22-18-26v-23h-9c116 0 209-94 209-208z m140-393v-49c20-9 31-28 31-50 0-31-24-56-56-56-30 0-56 25-56 56 0 22 13 41 31 50v48c-14 6-24 16-31 30-10-21-31-35-55-35-25 0-46 14-56 35-10-21-30-35-55-35-25 0-45 14-55 35-10-21-31-35-56-35-24 0-45 14-55 35-10-21-31-35-56-35-24 0-45 14-55 35-10-21-31-35-55-35s-45 14-55 35c-7-13-18-24-30-30v-31c18-9 30-28 30-50 0-31-25-56-56-56-31 0-56 25-56 56 0 22 12 41 32 50v31c-22 10-38 32-38 57 0 7 1 13 3 19l15 157-52 295h-83c-18 0-33 14-33 33 0 19 15 33 33 33h111c17 0 31-11 34-28l44-250h94c-12 0-20 10-20 21v20c0 12 8 21 20 21h473c12 0 21-9 21-21v-20c0-11-9-21-21-21h85c17 0 30-14 30-31l29-202c3-6 4-13 5-20l2-5h-1c0-26-15-47-37-57z m-173 216l-40 62c0 0-2 3-4 0l-39-62c0 0-5-5 2-5h15c4 0 9-1 9-10 0-71-58-129-129-129-71 0-129 58-129 130 0 71 58 128 129 128 19 0 37-3 54-12 2 0 5-1 7-1 6 0 12 4 14 9 4 8 0 17-7 20-22 10-44 15-68 15-88 0-160-71-160-160 0-88 72-160 160-160 88 0 159 72 161 160v2c0 1 0 8 8 8h15c6 0 2 5 2 5z m-181-19v65c0 2-2 5-5 5h-14c-2 0-3-3-3-5v-87c0-2 1-4 3-4h85c2 0 4 2 4 4v15c0 1-2 3-4 3h-63c-2 0-3 2-3 4z" horiz-adv-x="1000" />

<glyph glyph-name="villa-menu" unicode="&#xe840;" d="M948 581h-896c-7 0-12 5-12 12v68c0 7 5 12 12 12h896c7 0 12-5 12-12v-68c0-7-5-12-12-12z m12-266v68c0 7-5 12-12 12h-896c-7 0-12-5-12-12v-68c0-7 5-12 12-12h896c7 0 12 5 12 12z m-337-278v68c0 7-5 12-12 12h-559c-7 0-12-5-12-12v-68c0-7 5-12 12-12h559c7 0 12 5 12 12z" horiz-adv-x="1000" />

<glyph glyph-name="villa-logo-small" unicode="&#xe841;" d="M521 544h313l-156-268-157 268z m132-281l-156 267-156-267 312 0z m-179 281h-314l157-268 157 268z m23-577l157 269-313 0 156-269z m3 844c-254 0-461-207-461-461 0-254 207-461 461-461 254 0 461 207 461 461 0 254-207 461-461 461z m0-904c-245 0-443 198-443 443 0 245 198 443 443 443s443-198 443-443c0-245-198-443-443-443z" horiz-adv-x="1000" />

<glyph glyph-name="villa-logo-big" unicode="&#xe842;" d="M45 222h7l35-86c0 0 1 0 1 0 1-1 1-1 2-1 1 0 1 1 2 1 0 1 1-1 1 0l35 86h7l-34-85c-2-3-3-5-5-6-1-1-3-1-6-1-2 0-5 0-6 2-2 1-3 1-4 5l-35 85z m103-94v94h4v-94h-4z m26 94h12v-62c0-7 1-15 6-19 5-4 11-7 20-7h22v-6h-19c-13 0-24 4-30 9-7 5-11 14-11 25v60z m72 0h6v-62c0-7 3-15 8-19 5-4 12-7 22-7h26v-6h-24c-13 0-22 4-29 9-6 5-9 14-9 25v60z m68-94v65c0 10 4 19 11 25 7 7 17 10 29 10 12 0 23-3 30-10 7-6 12-14 12-25v-65h-12v50h-56v6h56v7c0 10-2 18-7 23-6 5-13 8-23 8-11 0-18-3-24-8-5-5-8-13-8-23v-63h-8z m104 0v94h6v-38h64v38h6v-94h-6v50h-64v-50h-6z m94 51c0 7 2 13 5 19 3 5 7 11 13 16 6 4 12 8 19 10 7 3 15 4 23 4 8 0 16-1 23-4 7-2 14-6 19-10 6-5 10-10 13-16 3-6 5-12 5-19 0-6-2-13-5-19-3-6-7-11-13-15-5-5-12-9-19-11-7-2-15-4-23-4-8 0-15 1-23 4-7 2-13 6-19 10-6 5-10 10-13 16-3 6-5 12-5 19z m8 0c0-6 2-11 4-17 3-5 7-10 12-14 5-4 10-7 17-9 6-2 12-3 19-3 7 0 14 1 20 3 6 2 12 5 17 9 5 4 9 9 11 14 3 5 4 11 4 17 0 6-1 11-4 16-2 6-6 10-11 15-5 4-10 7-17 9-6 2-13 3-20 3-7 0-13-1-20-3-6-2-11-5-16-9-5-4-9-9-12-14-2-6-4-11-4-17z m124 37v6h72v-6h-34v-88h-6v88h-32z m154-88h-5c-9 0-16 2-22 3-6 1-12 3-16 5-9 5-17 11-22 18-5 8-8 16-8 25 0 9 3 17 8 24 5 7 12 13 22 17 4 2 10 2 16 3 6 1 14-1 22-1h5v-1c0 0-2 0-3 0-1 0-2 0-4 0-17 0-31-3-40-9-10-7-16-16-18-28h65v-6h-65c1-14 6-23 16-30 10-7 24-11 42-11 2 0 3 0 4 0 1 0 3 0 3 0v-9z m18 94h8v-62c0-7 2-15 7-19 4-4 11-7 20-7h23v-6h-20c-13 0-22 4-29 9-6 5-9 14-9 25v60z m64-94v6h29c13 0 23 3 29 6 6 3 9 8 9 15 0 4-2 9-5 12-4 3-11 6-23 10l-8 2c-12 4-21 8-25 12-4 3-6 8-6 14 0 7 4 10 10 14 6 3 16 3 28 3h28l0 0h-30c-9 0-16-2-21-4-5-3-7-7-7-12 0-5 2-9 5-11 3-3 9-6 19-9l9-3c1 0 2-1 3-1 10-3 17-6 20-8 4-2 7-5 9-8 1-3 2-6 2-10 0-8-3-15-10-20-6-4-16-8-28-8h-37z m-734-44l-5 4c-1 2-2 3-3 5-1 1-1 3-1 4 0 4 2 6 5 8 4 3 9 3 14 3h46v-6h-45c-4 0-7 1-9-1-2-1-4-2-4-5 0-1 1-2 2-3 0-2 2-3 4-5l58-55c3 3 5 6 6 9 1 3 2 7 2 10 0 6-2 11-4 15-3 4-7 8-12 12l4 4c6-4 11-9 14-14 3-5 5-10 5-16 0-5-1-9-3-12-1-4-4-9-7-12l15-15h-9l-10 11c-5-4-11-7-16-9-6-1-12-2-19-2-7 0-13 1-19 3-6 1-11 4-15 8-5 3-9 8-11 12-2 5-4 10-4 15 0 7 2 13 5 18 4 5 9 10 16 14z m4-4c-6-4-11-8-13-13-3-4-5-9-5-14 0-3 1-6 2-9 1-3 2-6 4-9 4-5 9-9 15-12 6-3 13-4 21-4 5 0 11 1 15 2 5 2 10 5 15 8l-54 51z m90-66v62c0 11 4 20 10 26 6 6 16 9 28 9 10 0 18-2 25-7 7-5 10-11 10-18 0-6-2-10-5-14-4-4-9-7-15-9 8-1 15-4 18-8 4-4 7-10 7-17v-24h-10v22c0 8-2 14-7 17-5 4-13 5-25 5h-18v6h16c10 0 17 2 23 6 5 4 8 9 8 15 0 6-2 11-7 15-5 4-12 6-20 6-9 0-18-3-23-7-5-5-9-12-9-21v-64h-6z m160 0h-4c-8 0-15 1-21 2-7 1-12 3-16 5-10 4-17 10-22 17-5 7-8 16-8 24 0 9 3 17 8 25 5 7 12 12 21 17 5 2 10 2 17 3 6 1 14 1 22 1h3v-4c0 0-1 0-2 0-1 0-2 0-4 0-17 0-30-2-40-9-9-6-15-15-17-27h63v-4h-63c1-18 6-25 16-32 10-7 24-11 42-11 1 0 2-1 3-1 1 0 2 0 2 0v-6z m18 0v4h25c14 0 24 3 30 6 6 2 9 8 9 14 0 5-2 9-6 12-3 3-11 6-22 10l-8 2c-13 4-21 8-25 12-4 3-6 8-6 14 0 7 3 12 10 15 6 4 15 5 28 5h29v-6h-31c-9 0-16 0-21-3-5-2-7-6-7-11 0-4 1-8 4-10 3-3 10-6 20-9l9-3c0 0 1 0 3-1 10-3 17-6 20-8 4-2 6-5 8-8 2-3 3-6 3-10 0-7-3-14-10-18-7-4-16-7-28-7h-34z m85 48c0 7 1 13 4 19 3 6 8 11 13 16 6 5 12 8 20 11 7 2 14 3 23 3 8 0 15-1 22-3 8-3 14-6 20-11 6-5 10-10 13-16 3-6 4-12 4-18 0-7-1-13-4-19-3-6-8-11-13-16-6-5-12-8-20-11-7-2-14-3-22-3-8 0-16 1-23 3-8 3-14 6-20 11-5 5-10 10-13 16-3 5-4 12-4 18z m8 0c0-5 1-11 4-16 2-5 6-10 11-14 5-4 11-8 17-10 6-2 13-3 20-3 7 0 13 1 20 3 6 2 11 6 16 10 5 4 9 8 12 14 2 5 4 11 4 16 0 6-1 12-4 17-3 5-6 10-11 14-5 4-11 7-17 10-6 2-13 3-20 3-7 0-14-1-20-3-6-3-12-6-17-10-5-4-8-9-11-14-3-5-4-11-4-17z m127-48v62c0 11 4 20 10 26 6 6 16 9 28 9 10 0 18-2 25-7 7-5 10-11 10-18 0-6-2-10-5-14-4-4-9-7-16-9 8-1 15-4 19-8 4-4 7-10 7-17v-24h-12v22c0 8-1 14-6 17-5 4-12 5-24 5h-20v6h18c10 0 17 2 23 6 5 4 8 9 8 15 0 6-2 11-7 15-5 4-12 6-20 6-9 0-15-3-20-7-5-5-6-12-6-21v-64h-12z m88 88v6h72v-6h-32v-88h-6v88h-34z m84-88v4h27c14 0 24 3 30 6 6 2 9 8 9 14 0 5-2 9-5 12-4 3-11 6-23 10l-8 2c-12 4-21 8-25 12-4 3-6 8-6 14 0 7 3 12 10 15 6 4 16 5 28 5h27v-6h-29c-9 0-16 0-21-3-5-2-7-6-7-11 0-4 1-8 4-10 3-3 10-6 20-9l9-3c1 0 2 0 3-1 10-3 17-6 20-8 4-2 7-5 8-8 2-3 3-6 3-10 0-7-3-14-10-18-6-4-16-7-28-7h-36z m86 10c1 0 1 0 1 0 1 0 1 0 2 0 0 1 0 1 0 2 0 0 0 1 0 1 0 0-1 0-1 0-1 0-1 0-1 0v-3z m-2 4h4c1 0 2 0 2-1 1 0 1-1 1-1 0-1 0-1-1-2 0 0-1 0-1 0l2-3c0-1 0-1 0-1 1 0 1 0 1 0v-2h-2l-3 4h1v-1c0-1 0-1 0-1 0 0 0 0 0 0v-2h-4v2c2 0 1 0 1 0 1 0 1 1 1 1v5c0 1 0 1-1 1 0 1 1 1-1 1v0z m11-5c0 2-1 4-2 5-2 1-3 2-5 2-2 0-4-1-5-2-2-1-2-3-2-5 0-2 0-4 2-5 1-1 3-2 5-2 2 0 3 1 5 2 1 2 2 3 2 5z m1 0c0-2-1-4-3-6-1-1-3-2-6-2-2 0-4 1-5 2-2 2-3 4-3 6 0 2 1 4 3 6 1 1 3 2 5 2 3 0 5-1 6-2 2-2 3-4 3-6z m-395 553h130l-65-111-65 111z m55-115l-65 110-64-110 129 0z m-74 115h-130l65-111 65 111z m9-238l65 111-129 0 64-111z m2 349c-105 0-191-86-191-191 0-105 86-190 191-190 105 0 190 85 190 190 0 105-85 191-190 191z m0-373c-101 0-183 81-183 182 0 101 82 183 183 183s182-82 182-183c0-101-81-182-182-182z" horiz-adv-x="1000" />
</font>
</defs>
</svg>
